<svg width="61" height="61" fill="none" xmlns="http://www.w3.org/2000/svg"><circle cx="30.5" cy="30.5" r="29" stroke="#F5F4F6" stroke-width="3"/><path d="M30.502 12c-5.025 0-5.655.022-7.628.112-1.97.09-3.314.402-4.49.86a9.06 9.06 0 00-3.278 2.133 9.081 9.081 0 00-2.135 3.276c-.459 1.177-.771 2.522-.86 4.49C12.023 24.845 12 25.476 12 30.5c0 5.024.022 5.653.112 7.626.09 1.97.402 3.314.86 4.49a9.065 9.065 0 002.133 3.278 9.06 9.06 0 003.276 2.135c1.177.457 2.522.769 4.49.86 1.974.089 2.605.111 7.628.111 5.025 0 5.654-.022 7.627-.112 1.97-.09 3.316-.402 4.493-.86a9.052 9.052 0 003.275-2.134 9.08 9.08 0 002.135-3.277c.454-1.177.767-2.522.86-4.49.088-1.974.111-2.603.111-7.627 0-5.024-.023-5.655-.112-7.628-.092-1.97-.404-3.314-.86-4.49a9.079 9.079 0 00-2.134-3.278 9.041 9.041 0 00-3.277-2.133c-1.179-.457-2.524-.769-4.494-.86-1.973-.089-2.601-.111-7.627-.111h.006zm-1.66 3.334h1.66c4.94 0 5.525.018 7.475.106 1.804.083 2.783.384 3.435.637a5.72 5.72 0 012.126 1.384 5.741 5.741 0 011.385 2.128c.253.65.555 1.63.637 3.434.088 1.95.108 2.536.108 7.473 0 4.937-.02 5.523-.108 7.473-.083 1.804-.384 2.783-.637 3.434a5.72 5.72 0 01-1.385 2.125 5.721 5.721 0 01-2.126 1.384c-.651.254-1.63.555-3.435.637-1.95.089-2.536.108-7.475.108-4.94 0-5.526-.019-7.476-.108-1.804-.083-2.783-.384-3.435-.638a5.73 5.73 0 01-2.128-1.383A5.734 5.734 0 0116.08 41.4c-.253-.65-.555-1.63-.637-3.434-.089-1.95-.107-2.536-.107-7.476 0-4.94.018-5.523.107-7.473.082-1.804.384-2.783.637-3.435a5.731 5.731 0 011.384-2.127 5.74 5.74 0 012.128-1.385c.652-.254 1.631-.555 3.435-.638 1.707-.077 2.368-.1 5.816-.104v.005zm11.535 3.072a2.22 2.22 0 100 4.44 2.22 2.22 0 000-4.441zM30.502 21a9.5 9.5 0 00-9.5 9.5c0 5.247 4.253 9.499 9.5 9.499S40 35.747 40 30.5a9.5 9.5 0 00-9.5-9.5zm0 3.333a6.167 6.167 0 110 12.334 6.167 6.167 0 010-12.334z" fill="#F5F4F6"/></svg>