<svg width="18" height="24" fill="none" xmlns="http://www.w3.org/2000/svg"><mask id="a" fill="#fff"><path fill-rule="evenodd" clip-rule="evenodd" d="M15.375 13.733a8.558 8.558 0 10-13.633 0L8.558 24l6.817-10.267z"/></mask><path d="M15.375 13.733l-1.99-1.513-.049.064-.044.066 2.083 1.383zm-13.633 0l2.082-1.382-.044-.067-.048-.064-1.99 1.514zM8.558 24l-2.083 1.383 2.083 3.137 2.083-3.137L8.558 24zm6.058-15.442a6.02 6.02 0 01-1.231 3.662l3.98 3.026a11.02 11.02 0 002.251-6.688h-5zM8.558 2.5a6.058 6.058 0 016.058 6.058h5c0-6.107-4.95-11.058-11.058-11.058v5zM2.5 8.558A6.058 6.058 0 018.558 2.5v-5C2.451-2.5-2.5 2.45-2.5 8.558h5zm1.232 3.662A6.02 6.02 0 012.5 8.558h-5c0 2.51.84 4.832 2.252 6.689l3.98-3.027zm-4.073 2.896l6.816 10.267 4.166-2.766-6.817-10.266-4.165 2.765zm10.982 10.267l6.816-10.267-4.165-2.765-6.817 10.266 4.166 2.766z" fill="#F5F4F6" mask="url(#a)"/><circle cx="8.558" cy="8.372" r="2.791" stroke="#F5F4F6" stroke-width="2.5"/></svg>