<svg width="25" height="25" fill="none" xmlns="http://www.w3.org/2000/svg"><path d="M18.499 14.365c-.05-.023-1.872-.92-2.196-1.037a1.261 1.261 0 00-.424-.094c-.246 0-.453.123-.614.364-.182.27-.733.914-.904 1.107-.022.025-.052.056-.07.056a5.62 5.62 0 01-.384-.154c-1.955-.849-3.44-2.891-3.643-3.236-.029-.05-.03-.072-.03-.072a.59.59 0 01.107-.126c.099-.098.206-.227.31-.353l.148-.174c.15-.176.218-.312.296-.47l.04-.082a.85.85 0 00-.024-.8c-.043-.087-.813-1.944-.895-2.14-.196-.47-.456-.69-.818-.69-.033 0 0 0-.14.007-.171.007-1.104.13-1.516.39-.437.275-1.176 1.154-1.176 2.698 0 1.39.882 2.703 1.26 3.203.01.012.027.038.052.074 1.451 2.12 3.26 3.69 5.093 4.422 1.765.705 2.6.786 3.076.786.2 0 .36-.015.5-.03l.09-.008c.61-.054 1.95-.748 2.255-1.595.24-.667.303-1.396.143-1.66-.11-.18-.298-.271-.536-.386z" fill="#F5F4F6"/><path d="M12.722 0C5.952 0 .442 5.467.442 12.187c0 2.173.582 4.3 1.684 6.163L.017 24.571a.324.324 0 00.406.414l6.487-2.062a12.362 12.362 0 005.812 1.45c6.77 0 12.278-5.467 12.278-12.186C25 5.467 19.492 0 12.722 0zm0 21.834a9.727 9.727 0 01-5.352-1.596.325.325 0 00-.277-.037l-3.25 1.032 1.05-3.095a.325.325 0 00-.046-.296 9.516 9.516 0 01-1.851-5.655c0-5.32 4.363-9.648 9.726-9.648 5.362 0 9.725 4.328 9.725 9.648 0 5.32-4.363 9.647-9.725 9.647z" fill="#F5F4F6"/></svg>