<svg width="25" height="24" fill="none" xmlns="http://www.w3.org/2000/svg"><path d="M18.16 15.324l-.001.002c-.404.625-1.543 2.008-1.875 2.398a1.744 1.744 0 01-.174.18c-.038.035-.105.09-.193.142a1.062 1.062 0 01-.761.123h-.002a1.098 1.098 0 01-.147-.044 13.121 13.121 0 01-.346-.14c-.17-.07-.362-.154-.458-.197m3.957-2.464L5.403 1.01 5.635 1h.004c.124 0 .197.03.278.1.106.094.259.294.423.703h0c.04.097.156.39.313.783l.606 1.517c.4 1 .826 2.063.888 2.193h0l.004.007c.087.179.207.45.047.783l-.002.004-.082.17-.001.003c-.15.315-.24.502-.456.764a26.43 26.43 0 00-.303.376h-.001a9.761 9.761 0 01-.555.66h0l-.005.004-.003.004a3.847 3.847 0 00-.158.171c-.03.036-.073.087-.114.145l-.003.003c-.023.033-.128.178-.18.377l-.04.155.01.16.998-.062-.998.064h0v.007l.001.009.002.017a1.06 1.06 0 00.053.249 1.6 1.6 0 00.131.295l.002.002c.248.438 1.138 1.737 2.457 3.15 1.318 1.413 3.135 3.018 5.252 3.975m3.957-2.464c.182-.284.308-.294.381-.294.101 0 .232.033.495.131m-.876.163l.876-.163m-4.833 2.627l.412-.911-.412.91s0 0 0 0zm-10.88-5.32h0c.03.04.072.106.108.16l.018.029c2.814 4.278 6.274 7.37 9.687 8.79C16.57 22.873 18.1 23 18.876 23c.342 0 .616-.027.894-.056h.004l.178-.018h.007c.376-.035 1.186-.328 2.01-.875.827-.548 1.428-1.193 1.625-1.763h0a7.618 7.618 0 00.39-1.79c.022-.266.02-.484.003-.645a1.031 1.031 0 00-.034-.19.48.48 0 00-.13-.114 4.643 4.643 0 00-.514-.28L3.323 12.467zm0 0l-.004-.006m.004.005l-.004-.005m0 0C2.58 11.45 1 8.953 1 6.414c0-2.896 1.327-4.388 1.891-4.758l.428 10.806zm15.717 2.7c.259.096 1.262.587 2.292 1.104.824.413 1.679.85 1.917.97l.064.033-4.273-2.108zM4.244 1.196c-.602.131-1.11.3-1.353.46l1.353-.46zm0 0a9.468 9.468 0 011.16-.186l-1.16.186z" stroke="#F5F4F6" stroke-width="2"/></svg>