<svg width="24" height="24" fill="none" xmlns="http://www.w3.org/2000/svg"><path d="M18.443 24A18.449 18.449 0 015.41 18.58 18.523 18.523 0 010 5.52c0-1.464.58-2.868 1.614-3.903A5.503 5.503 0 015.509 0c.31-.002.618.026.922.084.294.044.583.116.862.216a1.198 1.198 0 01.779.9l1.64 7.2a1.202 1.202 0 01-.31 1.104c-.156.168-.168.18-1.642.948a11.88 11.88 0 005.833 5.868c.778-1.488.79-1.5.958-1.656a1.197 1.197 0 011.102-.312l7.185 1.644a1.197 1.197 0 01.863.78A5.21 5.21 0 0124 18.564a5.525 5.525 0 01-1.66 3.866A5.504 5.504 0 0118.443 24zM5.51 2.4a3.123 3.123 0 00-2.198.917 3.135 3.135 0 00-.916 2.203A16.108 16.108 0 007.1 16.887 16.044 16.044 0 0018.443 21.6a3.122 3.122 0 002.198-.918 3.135 3.135 0 00.916-2.202v-.396L16 16.8l-.347.66c-.54 1.044-.934 1.8-1.94 1.392a14.19 14.19 0 01-5.274-3.354A14.224 14.224 0 015.114 10.2c-.431-.936.383-1.368 1.413-1.908l.659-.324L5.904 2.4H5.51z" fill="#F5F4F6"/></svg>