<svg width="140" height="68" fill="none" xmlns="http://www.w3.org/2000/svg"><g clip-path="url(#clip0)"><path d="M82.48 43.31h-3.208l-.674 1.924h-1.502l3.132-8.267h1.297l3.14 8.267h-1.501l-.683-1.924zm-2.798-1.158h2.406l-1.203-3.431-1.203 3.431zm9.046-.034c0-.954.222-1.72.674-2.29.452-.57 1.05-.852 1.792-.852.7 0 1.255.239 1.656.733l.06-.622h1.245v5.96c0 .809-.256 1.439-.75 1.907-.504.468-1.178.698-2.032.698-.452 0-.896-.094-1.323-.281-.426-.187-.759-.434-.98-.732l.656-.826c.427.502.948.758 1.57.758.461 0 .82-.128 1.093-.375.264-.247.401-.613.401-1.098v-.417c-.401.442-.93.664-1.596.664-.717 0-1.314-.29-1.766-.86-.47-.562-.7-1.354-.7-2.367zm1.382.12c0 .62.128 1.106.376 1.455.256.358.606.528 1.05.528.554 0 .972-.238 1.237-.715v-2.708c-.265-.468-.674-.698-1.229-.698-.46 0-.81.179-1.058.536-.256.375-.376.903-.376 1.601zm11.683 3.115c-.879 0-1.587-.272-2.133-.826-.546-.553-.82-1.285-.82-2.196v-.17c0-.614.12-1.167.359-1.644.239-.485.572-.86.998-1.123.427-.273.905-.4 1.434-.4.837 0 1.485.263 1.946.8.461.536.683 1.285.683 2.264v.554h-4.028c.042.51.213.91.512 1.2.298.298.674.443 1.126.443.632 0 1.152-.256 1.545-.766l.742.706a2.47 2.47 0 01-.99.852 3.105 3.105 0 01-1.374.306zm1.707-7.27v.059h-1.109l-.854-.886-.845.886h-1.1v-.077l1.544-1.566h.811l1.553 1.583zm-1.869 2c-.375 0-.683.136-.921.4-.231.264-.385.63-.453 1.107h2.637v-.102c-.025-.46-.153-.809-.367-1.047-.213-.239-.512-.358-.896-.358zm8.491-.996l.035.707c.46-.545 1.049-.826 1.792-.826 1.28 0 1.937.732 1.954 2.196v4.061h-1.382V41.25c0-.391-.086-.68-.257-.868-.17-.187-.443-.28-.827-.28-.555 0-.973.255-1.246.757v4.367h-1.383v-6.147h1.314v.009zm11.231 5.159c.342 0 .632-.102.862-.298.231-.204.35-.45.367-.749h1.306c-.017.383-.137.74-.359 1.073a2.273 2.273 0 01-.913.783c-.384.196-.802.29-1.237.29-.862 0-1.545-.281-2.048-.835-.504-.553-.76-1.328-.76-2.307v-.145c0-.936.248-1.685.751-2.247.504-.562 1.186-.843 2.048-.843.734 0 1.332.213 1.792.638.461.426.7.988.726 1.678h-1.306a1.295 1.295 0 00-.358-.869c-.222-.23-.512-.34-.862-.34-.444 0-.794.161-1.033.485-.247.323-.367.817-.367 1.473v.221c0 .664.12 1.167.359 1.49.23.34.58.502 1.032.502zm7.075-6.751c0-.213.068-.392.205-.528.136-.136.324-.213.58-.213.256 0 .444.068.58.213a.716.716 0 01.205.528.71.71 0 01-.205.52c-.136.136-.333.204-.58.204-.256 0-.444-.069-.58-.205a.697.697 0 01-.205-.52zm1.468 7.739h-1.383v-6.147h1.383v6.147zm8.687 0c-.059-.12-.111-.306-.162-.57-.444.46-.981.69-1.613.69-.623 0-1.126-.171-1.519-.529a1.674 1.674 0 01-.589-1.302c0-.656.248-1.158.734-1.507.487-.35 1.186-.52 2.091-.52h.845v-.4c0-.323-.085-.57-.265-.766-.179-.196-.452-.29-.81-.29-.316 0-.572.077-.777.239a.715.715 0 00-.299.604h-1.382c0-.34.111-.647.333-.945.222-.29.529-.519.913-.69a3.308 3.308 0 011.288-.246c.726 0 1.298.179 1.724.545.427.357.649.868.657 1.524v2.775c0 .554.077.996.231 1.32v.094l-1.4-.026zm-1.519-.996c.273 0 .529-.068.768-.196.239-.136.418-.306.546-.536v-1.158h-.742c-.512 0-.896.085-1.161.264a.87.87 0 00-.392.758c0 .263.085.476.264.63.18.161.419.238.717.238zM77.847 58.345v-8.267h2.45c.733 0 1.382.162 1.945.486a3.283 3.283 0 011.314 1.387c.316.596.47 1.286.47 2.052v.417c0 .784-.154 1.473-.47 2.07a3.249 3.249 0 01-1.34 1.37c-.58.324-1.246.485-1.988.485h-2.381zm1.442-7.109v5.96h.939c.76 0 1.331-.238 1.74-.707.402-.468.615-1.15.615-2.026v-.46c0-.894-.196-1.583-.589-2.052-.392-.476-.955-.706-1.706-.706l-.999-.009zm9.541-.63c0-.213.069-.391.205-.528.137-.136.324-.213.58-.213.256 0 .444.069.58.213a.718.718 0 01.206.528.712.712 0 01-.205.52c-.137.136-.333.204-.58.204-.257 0-.444-.068-.581-.204a.698.698 0 01-.205-.52zm1.468 7.74h-1.383v-6.148h1.383v6.147zm4.762-3.116c0-.954.222-1.712.674-2.291.452-.57 1.05-.851 1.792-.851.7 0 1.255.238 1.656.732l.06-.622h1.246v5.96c0 .809-.248 1.439-.751 1.907-.504.468-1.178.698-2.031.698-.453 0-.897-.093-1.323-.28-.427-.188-.76-.435-.982-.741l.657-.826c.427.502.948.758 1.57.758.462 0 .82-.128 1.093-.375.265-.247.401-.613.401-1.098v-.418c-.401.443-.93.664-1.596.664-.717 0-1.314-.289-1.766-.86-.47-.553-.7-1.353-.7-2.358zm1.382.118c0 .622.129 1.107.376 1.456.256.358.606.528 1.05.528.554 0 .973-.238 1.237-.715V53.91c-.264-.469-.674-.698-1.229-.698-.46 0-.81.178-1.058.536-.248.366-.376.902-.376 1.6zm8.978-4.742a.72.72 0 01.205-.528c.137-.136.324-.213.58-.213.248 0 .444.069.581.213a.72.72 0 01.205.528.714.714 0 01-.205.52c-.137.136-.333.204-.581.204-.256 0-.443-.068-.58-.204-.145-.137-.205-.307-.205-.52zm1.468 7.74h-1.382v-6.148h1.382v6.147zm6.742-7.638v1.49h1.092v1.022h-1.092v3.431c0 .23.051.409.137.51.093.103.256.154.494.154a1.9 1.9 0 00.487-.06v1.065a3.523 3.523 0 01-.913.127c-1.067 0-1.596-.587-1.596-1.753V53.21h-1.016v-1.02h1.016V50.7h1.391v.008zm9.319 7.637c-.06-.119-.111-.306-.162-.57-.435.46-.982.69-1.613.69-.623 0-1.127-.17-1.519-.528-.393-.358-.589-.784-.589-1.303 0-.656.248-1.158.734-1.507s1.186-.52 2.091-.52h.845v-.4c0-.323-.086-.57-.265-.766-.179-.196-.452-.29-.811-.29-.315 0-.571.077-.776.24a.715.715 0 00-.299.604h-1.382c0-.34.111-.647.332-.945a2.3 2.3 0 01.914-.69 3.308 3.308 0 011.288-.247c.726 0 1.297.179 1.724.545.427.358.649.868.666 1.524v2.776c0 .553.076.996.23 1.32v.093l-1.408-.026zm-1.519-.996c.273 0 .529-.068.777-.196a1.38 1.38 0 00.546-.536v-1.158h-.743c-.512 0-.896.085-1.16.264a.871.871 0 00-.393.758c0 .264.085.477.265.63.179.162.409.238.708.238zm9.114.996h-1.382v-8.718h1.382v8.718z" fill="#F5F4F6"/><path d="M93.089 19.582c.273-.188.563-.273.887-.273.487 0 .913.162 1.297.494.376.332.572.724.572 1.192 0 .221-.06.46-.179.724l-3.559 7.603c-.162.366-.41.647-.734.843a2.105 2.105 0 01-1.092.297 1.97 1.97 0 01-1.075-.297 1.805 1.805 0 01-.726-.843l-2.09-4.623-1.955 4.623a1.658 1.658 0 01-.717.843 2.104 2.104 0 01-1.092.297c-.401 0-.76-.093-1.092-.297a1.923 1.923 0 01-.76-.843l-3.541-7.603a1.634 1.634 0 01-.154-.698c0-.486.205-.886.606-1.218a2.068 2.068 0 011.357-.494c.35 0 .674.094.956.273.281.187.503.468.648.843l2.091 5.057 2.134-5.04c.145-.366.375-.639.682-.835a1.876 1.876 0 011.98 0c.307.188.538.469.683.835l2.202 5.057 2.048-5.108c.145-.35.35-.622.623-.81zm14.943.877c.793.791 1.194 2.009 1.194 3.627v4.58c0 .553-.162.988-.495 1.303-.332.315-.785.468-1.373.468-.513 0-.931-.145-1.264-.434-.332-.29-.512-.69-.537-1.184a2.389 2.389 0 01-1.033 1.226c-.486.29-1.058.434-1.732.434-.751 0-1.425-.153-2.023-.45a3.431 3.431 0 01-1.416-1.252 3.278 3.278 0 01-.512-1.805c0-.775.204-1.388.606-1.848.4-.46 1.041-.791 1.92-.996.879-.204 2.065-.306 3.558-.306h.589v-.264c0-.511-.119-.877-.35-1.107-.23-.221-.631-.34-1.186-.34-.606 0-1.476.204-2.637.612-.341.12-.623.17-.853.17-.367 0-.657-.127-.88-.39-.221-.265-.332-.605-.332-1.031 0-.324.068-.579.196-.792.128-.204.341-.392.64-.545.512-.264 1.161-.477 1.937-.638a11.166 11.166 0 012.287-.239c1.665.009 2.893.409 3.696 1.2zm-3.021 6.862c.341-.375.503-.852.503-1.43v-.264h-.35c-.938 0-1.604.085-1.997.255-.392.17-.597.451-.597.843 0 .34.111.613.316.834.213.222.486.332.827.332.53-.017.956-.195 1.298-.57zm18.245-7.339c.726.477 1.289 1.14 1.69 2.01.401.86.606 1.847.606 2.953 0 1.107-.205 2.086-.606 2.93-.401.842-.964 1.49-1.681 1.94-.717.452-1.545.682-2.484.682a4.3 4.3 0 01-1.903-.418c-.58-.28-1.032-.647-1.348-1.115v3.72c0 .512-.179.92-.529 1.227-.35.306-.811.46-1.383.46-.606 0-1.083-.162-1.45-.494-.367-.333-.547-.75-.547-1.26V21.106c0-.545.171-.98.513-1.303.341-.332.81-.494 1.391-.494.554 0 1.007.145 1.348.435.341.29.538.68.58 1.166.307-.51.76-.911 1.349-1.2a4.434 4.434 0 011.971-.435c.939-.008 1.758.23 2.483.707zm-2.108 6.905c.359-.451.538-1.107.538-1.95 0-.894-.188-1.575-.546-2.052-.367-.477-.888-.715-1.562-.715s-1.195.23-1.562.698c-.367.468-.546 1.141-.546 2.018 0 .86.179 1.524.546 1.984.367.46.897.69 1.579.69.683.008 1.195-.213 1.553-.673zm16.053-7.288c.282-.179.589-.264.922-.264.486 0 .921.162 1.297.485.375.324.571.707.571 1.167 0 .247-.059.485-.179.723l-5.82 11.63c-.179.366-.41.639-.691.809a1.721 1.721 0 01-.939.264c-.486 0-.913-.153-1.289-.468-.375-.315-.563-.699-.563-1.15 0-.247.069-.502.197-.766l1.425-2.87-3.738-7.449c-.12-.264-.179-.494-.179-.698 0-.468.204-.868.614-1.192.41-.332.871-.494 1.383-.494.349 0 .674.094.981.273.299.187.529.46.691.826l2.33 5.04 2.304-5.04c.188-.383.41-.656.683-.826z" fill="#FF7F66"/><path d="M48.422 52.096c-.017.043-.043.085-.06.128-.529 1.183-1.331 2.111-2.407 2.775-1.109.69-2.346 1.04-3.686 1.056h-.043A7.092 7.092 0 0138.54 55c-1.075-.664-1.877-1.583-2.406-2.775l6.11-14.252 6.955-16.194c.478-1.243 1.178-2.188 2.091-2.818a5.23 5.23 0 013.021-.97c1.647-.026 3.124.51 4.438 1.617 1.314 1.099 1.98 2.444 2.005 4.027.009.741-.179 1.567-.563 2.46L48.422 52.097zM15.028 20.484c-9.361-.05-10.863-2.162-11.034-2.46l15.984 34.072c.606 1.243 1.46 2.197 2.586 2.87 1.118.672 2.355 1.004 3.704 1.004 1.348 0 2.577-.332 3.703-1.005 1.118-.672 1.929-1.626 2.433-2.869l1.775-4.189 4.881-11.519 1.289-2.852 2.475-5.491c-.504-1.235-1.272-2.18-2.322-2.827a6.27 6.27 0 00-3.362-.97 6.248 6.248 0 00-3.37.962c-1.05.646-1.827 1.583-2.322 2.826l-3.073 7.041-1.74 3.993-6.136-14.788c-.504-1.295-1.238-2.248-2.21-2.87-.982-.621-2.066-.92-3.26-.928z" fill="#fff"/><path d="M48.422 52.096c-.017.043-.043.085-.06.128-.529 1.183-1.331 2.111-2.407 2.775-1.109.69-2.346 1.04-3.686 1.056h-.043A7.092 7.092 0 0138.54 55c-1.075-.664-1.877-1.583-2.406-2.775l6.11-14.252 6.955-16.194c.478-1.243 1.178-2.188 2.091-2.818a5.23 5.23 0 013.021-.97c1.647-.026 3.124.51 4.438 1.617 1.314 1.099 1.98 2.444 2.005 4.027.009.741-.179 1.567-.563 2.46L48.422 52.097z" fill="#fff"/><path d="M34.076 0C21.045 0 9.73 7.296 3.994 18.024c.17.298 1.673 2.41 11.034 2.46 1.195.009 2.279.307 3.26.928.973.622 1.707 1.575 2.21 2.87l6.137 14.788 1.74-3.993 3.073-7.04c.495-1.244 1.271-2.18 2.321-2.828a6.248 6.248 0 013.37-.962 6.27 6.27 0 013.363.971c1.05.647 1.818 1.592 2.322 2.827l-2.475 5.491-1.289 2.852-4.881 11.52-1.776 4.188c-.503 1.243-1.314 2.197-2.432 2.87-1.126.672-2.355 1.004-3.703 1.004-1.349 0-2.586-.332-3.704-1.005-1.127-.672-1.98-1.626-2.586-2.869L3.994 18.024A33.704 33.704 0 000 33.996C0 52.769 15.259 67.99 34.076 67.99c18.818 0 34.076-15.222 34.076-33.995C68.152 15.223 52.902 0 34.076 0zm14.346 52.096c-.017.043-.043.085-.06.128-.529 1.183-1.331 2.111-2.407 2.775-1.109.69-2.346 1.04-3.686 1.056h-.043A7.092 7.092 0 0138.54 55c-1.075-.664-1.877-1.583-2.406-2.775l6.11-14.252 6.955-16.194c.478-1.243 1.178-2.188 2.091-2.818a5.23 5.23 0 013.021-.97c1.647-.026 3.124.51 4.438 1.617 1.314 1.099 1.98 2.444 2.005 4.027.009.741-.179 1.567-.563 2.46L48.422 52.097z" fill="#8A49B6"/></g><defs><clipPath id="clip0"><path fill="#fff" d="M0 0h140v68H0z"/></clipPath></defs></svg>