<svg width="140" height="68" viewBox="0 0 140 68" fill="none" xmlns="http://www.w3.org/2000/svg">
<g clip-path="url(#clip0)">
<path d="M82.4809 43.3099H79.2721L78.5979 45.234H77.0959L80.2279 36.9671H81.5251L84.6656 45.234H83.1636L82.4809 43.3099ZM79.6818 42.152H82.0883L80.885 38.7209L79.6818 42.152Z" fill="#F5F4F6"/>
<path d="M88.7278 42.1179C88.7278 41.1644 88.9497 40.3981 89.402 39.8277C89.8543 39.2573 90.4516 38.9763 91.1941 38.9763C91.8939 38.9763 92.4486 39.2147 92.8497 39.7085L92.9094 39.087H94.1554V45.0467C94.1554 45.8555 93.8994 46.4855 93.4044 46.9538C92.9009 47.4221 92.2267 47.6519 91.3733 47.6519C90.921 47.6519 90.4772 47.5583 90.0505 47.371C89.6238 47.1837 89.291 46.9368 89.0691 46.6388L89.7263 45.8129C90.153 46.3153 90.6735 46.5707 91.2965 46.5707C91.7573 46.5707 92.1158 46.443 92.3889 46.1961C92.6534 45.9492 92.79 45.5831 92.79 45.0978V44.6806C92.3889 45.1233 91.8598 45.3447 91.1941 45.3447C90.4772 45.3447 89.8799 45.0552 89.4276 44.4848C88.9582 43.9229 88.7278 43.1311 88.7278 42.1179ZM90.1103 42.2371C90.1103 42.8586 90.2383 43.3439 90.4858 43.693C90.7418 44.0506 91.0917 44.2209 91.5355 44.2209C92.0902 44.2209 92.5083 43.9825 92.7729 43.5057V40.7983C92.5083 40.33 92.0987 40.1002 91.544 40.1002C91.0832 40.1002 90.7333 40.279 90.4858 40.6365C90.2298 41.0111 90.1103 41.539 90.1103 42.2371Z" fill="#F5F4F6"/>
<path d="M101.793 45.3532C100.914 45.3532 100.206 45.0808 99.6598 44.5274C99.1137 43.974 98.8406 43.2418 98.8406 42.3308V42.1605C98.8406 41.5475 98.9601 40.9941 99.199 40.5173C99.438 40.0321 99.7708 39.6574 100.197 39.3935C100.624 39.1211 101.102 38.9934 101.631 38.9934C102.468 38.9934 103.116 39.2573 103.577 39.7937C104.038 40.33 104.26 41.0793 104.26 42.0583V42.6117H100.232C100.274 43.1226 100.445 43.5227 100.744 43.8122C101.042 44.1102 101.418 44.2549 101.87 44.2549C102.502 44.2549 103.022 43.9995 103.415 43.4887L104.157 44.1953C103.91 44.5614 103.585 44.8424 103.167 45.0467C102.766 45.2425 102.305 45.3532 101.793 45.3532ZM103.5 38.0824V38.142H102.391L101.537 37.2565L100.692 38.142H99.5916V38.0654L101.136 36.4988H101.947L103.5 38.0824ZM101.631 40.0831C101.256 40.0831 100.948 40.2194 100.71 40.4833C100.479 40.7472 100.325 41.1133 100.257 41.5901H102.894V41.4879C102.869 41.0282 102.741 40.6791 102.527 40.4407C102.314 40.2023 102.015 40.0831 101.631 40.0831Z" fill="#F5F4F6"/>
<path d="M110.122 39.087L110.157 39.7937C110.617 39.2488 111.206 38.9678 111.949 38.9678C113.229 38.9678 113.886 39.7 113.903 41.1644V45.2255H112.521V41.2495C112.521 40.8579 112.435 40.5684 112.264 40.3811C112.094 40.1938 111.821 40.1002 111.437 40.1002C110.882 40.1002 110.464 40.3556 110.191 40.8579V45.2255H108.808V39.0785H110.122V39.087Z" fill="#F5F4F6"/>
<path d="M121.353 44.2464C121.695 44.2464 121.985 44.1442 122.215 43.9484C122.446 43.7441 122.565 43.4972 122.582 43.1992H123.888C123.871 43.5823 123.751 43.9399 123.529 44.2719C123.308 44.604 123 44.8679 122.616 45.0552C122.232 45.251 121.814 45.3447 121.379 45.3447C120.517 45.3447 119.834 45.0637 119.331 44.5103C118.827 43.9569 118.571 43.1822 118.571 42.2031V42.0583C118.571 41.1218 118.819 40.3726 119.322 39.8107C119.826 39.2488 120.508 38.9678 121.37 38.9678C122.104 38.9678 122.702 39.1807 123.162 39.6064C123.623 40.032 123.862 40.594 123.888 41.2836H122.582C122.565 40.9345 122.446 40.645 122.224 40.4152C122.002 40.1853 121.712 40.0746 121.362 40.0746C120.918 40.0746 120.568 40.2364 120.329 40.5599C120.082 40.8834 119.962 41.3772 119.962 42.0328V42.2542C119.962 42.9182 120.082 43.4206 120.321 43.7441C120.551 44.0846 120.901 44.2464 121.353 44.2464Z" fill="#F5F4F6"/>
<path d="M128.428 37.4949C128.428 37.2821 128.496 37.1033 128.633 36.9671C128.769 36.8309 128.957 36.7542 129.213 36.7542C129.469 36.7542 129.657 36.8223 129.793 36.9671C129.93 37.1033 129.998 37.2821 129.998 37.4949C129.998 37.6993 129.93 37.8781 129.793 38.0143C129.657 38.1505 129.46 38.2186 129.213 38.2186C128.957 38.2186 128.769 38.1505 128.633 38.0143C128.496 37.8781 128.428 37.7078 128.428 37.4949ZM129.896 45.234H128.513V39.087H129.896V45.234Z" fill="#F5F4F6"/>
<path d="M138.583 45.234C138.524 45.1148 138.472 44.9275 138.421 44.6636C137.977 45.1233 137.44 45.3532 136.808 45.3532C136.185 45.3532 135.682 45.1829 135.289 44.8253C134.897 44.4763 134.7 44.0421 134.7 43.5227C134.7 42.8672 134.948 42.3648 135.434 42.0158C135.921 41.6667 136.62 41.4964 137.525 41.4964H138.37V41.0963C138.37 40.7728 138.285 40.5259 138.105 40.33C137.926 40.1342 137.653 40.0406 137.295 40.0406C136.979 40.0406 136.723 40.1172 136.518 40.279C136.313 40.4322 136.219 40.6365 136.219 40.8834H134.837C134.837 40.5429 134.948 40.2364 135.17 39.9384C135.392 39.6489 135.699 39.4191 136.083 39.2488C136.467 39.087 136.902 39.0019 137.371 39.0019C138.097 39.0019 138.669 39.1807 139.095 39.5468C139.522 39.9043 139.744 40.4152 139.752 41.0707V43.8462C139.752 44.3996 139.829 44.8424 139.983 45.1659V45.2595L138.583 45.234ZM137.064 44.2379C137.337 44.2379 137.593 44.1698 137.832 44.0421C138.071 43.9058 138.25 43.7356 138.378 43.5057V42.3478H137.636C137.124 42.3478 136.74 42.433 136.475 42.6117C136.219 42.7905 136.083 43.0374 136.083 43.3695C136.083 43.6334 136.168 43.8462 136.347 43.9995C136.527 44.1613 136.766 44.2379 137.064 44.2379Z" fill="#F5F4F6"/>
<path d="M77.8469 58.3453V50.0784H80.2962C81.0301 50.0784 81.6787 50.2401 82.2419 50.5637C82.8052 50.8872 83.2489 51.3469 83.5562 51.9514C83.8719 52.5474 84.0255 53.237 84.0255 54.0032V54.4204C84.0255 55.2037 83.8719 55.8933 83.5562 56.4893C83.2404 57.0853 82.7966 57.545 82.2163 57.86C81.636 58.1835 80.9704 58.3453 80.2279 58.3453H77.8469ZM79.2892 51.2363V57.1959H80.2279C80.9874 57.1959 81.5592 56.9575 81.9688 56.4893C82.3699 56.021 82.5833 55.3399 82.5833 54.463V54.0032C82.5833 53.1093 82.387 52.4197 81.9944 51.9514C81.6019 51.4746 81.0386 51.2448 80.2876 51.2448L79.2892 51.2363Z" fill="#F5F4F6"/>
<path d="M88.8302 50.6062C88.8302 50.3934 88.8985 50.2146 89.035 50.0784C89.1716 49.9421 89.3593 49.8655 89.6153 49.8655C89.8714 49.8655 90.0591 49.9336 90.1956 50.0784C90.3322 50.2146 90.4005 50.3934 90.4005 50.6062C90.4005 50.8106 90.3322 50.9894 90.1956 51.1256C90.0591 51.2618 89.8628 51.3299 89.6153 51.3299C89.3593 51.3299 89.1716 51.2618 89.035 51.1256C88.8985 50.9894 88.8302 50.8191 88.8302 50.6062ZM90.298 58.3453H88.9155V52.1983H90.298V58.3453Z" fill="#F5F4F6"/>
<path d="M95.0599 55.2293C95.0599 54.2757 95.2818 53.518 95.7341 52.939C96.1864 52.3686 96.7838 52.0876 97.5263 52.0876C98.226 52.0876 98.7808 52.326 99.1819 52.8198L99.2416 52.1983H100.488V58.158C100.488 58.9668 100.24 59.5968 99.7366 60.0651C99.2331 60.5334 98.5589 60.7632 97.7055 60.7632C97.2532 60.7632 96.8094 60.6696 96.3827 60.4823C95.956 60.295 95.6232 60.0481 95.4013 59.7416L96.0584 58.9157C96.4851 59.4181 97.0057 59.6735 97.6287 59.6735C98.0895 59.6735 98.4479 59.5458 98.721 59.2989C98.9856 59.052 99.1221 58.6859 99.1221 58.2006V57.7834C98.721 58.2261 98.1919 58.4475 97.5263 58.4475C96.8094 58.4475 96.212 58.158 95.7597 57.5876C95.2904 57.0342 95.0599 56.2339 95.0599 55.2293ZM96.4424 55.3484C96.4424 55.97 96.5705 56.4552 96.8179 56.8043C97.074 57.1619 97.4239 57.3322 97.8676 57.3322C98.4223 57.3322 98.8405 57.0938 99.105 56.617V53.9096C98.8405 53.4413 98.4309 53.2115 97.8762 53.2115C97.4153 53.2115 97.0654 53.3903 96.8179 53.7478C96.5705 54.1139 96.4424 54.6503 96.4424 55.3484Z" fill="#F5F4F6"/>
<path d="M105.42 50.6062C105.42 50.3934 105.489 50.2146 105.625 50.0784C105.762 49.9421 105.949 49.8655 106.205 49.8655C106.453 49.8655 106.649 49.9336 106.786 50.0784C106.922 50.2146 106.991 50.3934 106.991 50.6062C106.991 50.8106 106.922 50.9894 106.786 51.1256C106.649 51.2618 106.453 51.3299 106.205 51.3299C105.949 51.3299 105.762 51.2618 105.625 51.1256C105.48 50.9894 105.42 50.8191 105.42 50.6062ZM106.888 58.3453H105.506V52.1983H106.888V58.3453Z" fill="#F5F4F6"/>
<path d="M113.63 50.7084V52.1983H114.722V53.22H113.63V56.6511C113.63 56.8809 113.681 57.0597 113.767 57.1619C113.86 57.2641 114.023 57.3151 114.261 57.3151C114.424 57.3151 114.586 57.2981 114.748 57.2555V58.3198C114.432 58.4049 114.125 58.4475 113.835 58.4475C112.768 58.4475 112.239 57.86 112.239 56.6936V53.2115H111.223V52.1898H112.239V50.6999H113.63V50.7084Z" fill="#F5F4F6"/>
<path d="M122.949 58.3453C122.889 58.2261 122.838 58.0388 122.787 57.7749C122.352 58.2346 121.805 58.4645 121.174 58.4645C120.551 58.4645 120.047 58.2942 119.655 57.9366C119.262 57.5791 119.066 57.1534 119.066 56.634C119.066 55.9785 119.314 55.4761 119.8 55.1271C120.286 54.778 120.986 54.6077 121.891 54.6077H122.736V54.2076C122.736 53.8841 122.65 53.6372 122.471 53.4413C122.292 53.2455 122.019 53.1519 121.66 53.1519C121.345 53.1519 121.089 53.2285 120.884 53.3903C120.679 53.5435 120.585 53.7478 120.585 53.9947H119.203C119.203 53.6542 119.314 53.3477 119.535 53.0497C119.757 52.7602 120.065 52.5304 120.449 52.3601C120.833 52.1983 121.268 52.1132 121.737 52.1132C122.463 52.1132 123.034 52.292 123.461 52.6581C123.888 53.0156 124.11 53.5265 124.127 54.182V56.9576C124.127 57.511 124.203 57.9537 124.357 58.2772V58.3708L122.949 58.3453ZM121.43 57.3492C121.703 57.3492 121.959 57.2811 122.207 57.1534C122.445 57.0171 122.625 56.8469 122.753 56.617V55.4591H122.01C121.498 55.4591 121.114 55.5443 120.85 55.723C120.594 55.9018 120.457 56.1487 120.457 56.4808C120.457 56.7447 120.542 56.9576 120.722 57.1108C120.901 57.2726 121.131 57.3492 121.43 57.3492Z" fill="#F5F4F6"/>
<path d="M130.544 58.3453H129.162V49.6271H130.544V58.3453Z" fill="#F5F4F6"/>
<path d="M93.0887 19.5818C93.3618 19.3945 93.652 19.3094 93.9763 19.3094C94.4627 19.3094 94.8894 19.4712 95.2734 19.8032C95.6489 20.1352 95.8452 20.5269 95.8452 20.9951C95.8452 21.2165 95.7855 21.4549 95.666 21.7188L92.1073 29.3217C91.9452 29.6878 91.6977 29.9687 91.3734 30.1645C91.0406 30.3603 90.6821 30.4625 90.281 30.4625C89.8885 30.4625 89.5301 30.3689 89.2058 30.1645C88.8815 29.9687 88.6425 29.6878 88.4804 29.3217L86.3896 24.6986L84.4353 29.3217C84.2902 29.6878 84.0512 29.9687 83.7184 30.1645C83.3856 30.3603 83.0272 30.4625 82.6261 30.4625C82.225 30.4625 81.8665 30.3689 81.5337 30.1645C81.2009 29.9687 80.9534 29.6878 80.7742 29.3217L77.2326 21.7188C77.1302 21.4974 77.079 21.2676 77.079 21.0207C77.079 20.5354 77.2838 20.1352 77.6849 19.8032C78.086 19.4712 78.5383 19.3094 79.0418 19.3094C79.3917 19.3094 79.716 19.403 79.9976 19.5818C80.2792 19.7691 80.5011 20.0501 80.6462 20.4247L82.737 25.4819L84.8705 20.4417C85.0156 20.0756 85.246 19.8032 85.5532 19.6074C85.8604 19.4201 86.1933 19.3264 86.5432 19.3264C86.8931 19.3264 87.2259 19.4201 87.5331 19.6074C87.8403 19.7947 88.0707 20.0756 88.2158 20.4417L90.4176 25.4989L92.4657 20.3906C92.6108 20.0416 92.8156 19.7691 93.0887 19.5818Z" fill="#FF7F66"/>
<path d="M108.032 20.4588C108.825 21.2505 109.226 22.468 109.226 24.0856V28.6661C109.226 29.2195 109.064 29.6537 108.731 29.9687C108.399 30.2837 107.946 30.437 107.358 30.437C106.845 30.437 106.427 30.2922 106.094 30.0028C105.762 29.7133 105.582 29.3131 105.557 28.8193C105.352 29.3472 105.011 29.7559 104.524 30.0453C104.038 30.3348 103.466 30.4795 102.792 30.4795C102.041 30.4795 101.367 30.3263 100.769 30.0283C100.163 29.7303 99.694 29.3131 99.3526 28.7768C99.0113 28.2404 98.8406 27.6444 98.8406 26.9718C98.8406 26.1971 99.0454 25.5841 99.4465 25.1243C99.8476 24.6646 100.488 24.3325 101.367 24.1282C102.246 23.9239 103.432 23.8217 104.925 23.8217H105.514V23.5578C105.514 23.047 105.395 22.6809 105.164 22.451C104.934 22.2296 104.533 22.1104 103.978 22.1104C103.372 22.1104 102.502 22.3148 101.341 22.7234C101 22.8426 100.718 22.8937 100.488 22.8937C100.121 22.8937 99.8305 22.766 99.6086 22.5021C99.3868 22.2381 99.2758 21.8976 99.2758 21.4719C99.2758 21.1484 99.3441 20.893 99.4721 20.6801C99.6001 20.4758 99.8134 20.2885 100.112 20.1352C100.624 19.8713 101.273 19.6584 102.049 19.4967C102.826 19.3349 103.585 19.2583 104.336 19.2583C106.001 19.2668 107.229 19.667 108.032 20.4588ZM105.011 27.3209C105.352 26.9463 105.514 26.4695 105.514 25.8906V25.6266H105.164C104.226 25.6266 103.56 25.7118 103.167 25.8821C102.775 26.0523 102.57 26.3333 102.57 26.7249C102.57 27.0655 102.681 27.3379 102.886 27.5593C103.099 27.7806 103.372 27.8913 103.713 27.8913C104.243 27.8743 104.669 27.6955 105.011 27.3209Z" fill="#FF7F66"/>
<path d="M123.256 19.982C123.982 20.4588 124.545 21.1228 124.946 21.9912C125.347 22.8511 125.552 23.8388 125.552 24.9455C125.552 26.0523 125.347 27.0314 124.946 27.8743C124.545 28.7172 123.982 29.3642 123.265 29.8155C122.548 30.2667 121.72 30.4966 120.781 30.4966C120.09 30.4966 119.459 30.3604 118.878 30.0794C118.298 29.7984 117.846 29.4323 117.53 28.9641V32.6846C117.53 33.1955 117.351 33.6041 117.001 33.9106C116.651 34.2171 116.19 34.3704 115.618 34.3704C115.012 34.3704 114.535 34.2086 114.168 33.8766C113.801 33.5445 113.621 33.1273 113.621 32.6165V21.1058C113.621 20.5609 113.792 20.1267 114.134 19.8032C114.475 19.4712 114.944 19.3094 115.525 19.3094C116.079 19.3094 116.532 19.4541 116.873 19.7436C117.214 20.0331 117.411 20.4247 117.453 20.91C117.76 20.3992 118.213 19.999 118.802 19.7095C119.399 19.4201 120.048 19.2753 120.773 19.2753C121.712 19.2668 122.531 19.5052 123.256 19.982ZM121.148 26.8867C121.507 26.4355 121.686 25.7799 121.686 24.937C121.686 24.0431 121.498 23.362 121.14 22.8852C120.773 22.4084 120.252 22.17 119.578 22.17C118.904 22.17 118.383 22.3999 118.016 22.8682C117.649 23.3364 117.47 24.009 117.47 24.886C117.47 25.7459 117.649 26.4099 118.016 26.8697C118.383 27.3294 118.913 27.5593 119.595 27.5593C120.278 27.5678 120.79 27.3465 121.148 26.8867Z" fill="#FF7F66"/>
<path d="M137.201 19.5989C137.483 19.4201 137.79 19.3349 138.123 19.3349C138.609 19.3349 139.044 19.4967 139.42 19.8202C139.795 20.1437 139.991 20.5269 139.991 20.9866C139.991 21.2335 139.932 21.4719 139.812 21.7103L133.992 33.3402C133.813 33.7063 133.582 33.9787 133.301 34.149C133.019 34.3278 132.703 34.4129 132.362 34.4129C131.876 34.4129 131.449 34.2597 131.073 33.9447C130.698 33.6297 130.51 33.2465 130.51 32.7953C130.51 32.5484 130.579 32.293 130.707 32.0291L132.132 29.1599L128.394 21.7103C128.274 21.4464 128.215 21.2165 128.215 21.0122C128.215 20.5439 128.419 20.1437 128.829 19.8202C129.239 19.4882 129.7 19.3264 130.212 19.3264C130.561 19.3264 130.886 19.4201 131.193 19.5989C131.492 19.7862 131.722 20.0586 131.884 20.4247L134.214 25.4649L136.518 20.4247C136.706 20.0416 136.928 19.7691 137.201 19.5989Z" fill="#FF7F66"/>
<path d="M48.4218 52.0962C48.4047 52.1387 48.3791 52.1813 48.3621 52.2239C47.833 53.4073 47.0308 54.3353 45.9555 54.9994C44.8461 55.689 43.6086 56.0381 42.2688 56.0551C42.2517 56.0551 42.2347 56.0551 42.2261 56.0551C40.8778 56.0381 39.6489 55.6805 38.5395 54.9994C37.4642 54.3353 36.662 53.4158 36.1329 52.2239L42.2432 37.9717L49.1984 21.7784C49.6763 20.5354 50.3761 19.5903 51.2892 18.9603C52.2024 18.3218 53.2094 17.9982 54.3103 17.9897C55.9573 17.9642 57.4337 18.5006 58.7479 19.6074C60.0622 20.7056 60.7278 22.0508 60.7534 23.6344C60.762 24.3751 60.5742 25.201 60.1902 26.0949L48.4218 52.0962Z" fill="white"/>
<path d="M15.0283 20.4843C5.66656 20.4332 4.16458 18.3218 3.9939 18.0238L19.978 52.0962C20.584 53.3392 21.4374 54.2927 22.5638 54.9653C23.6818 55.6379 24.9192 55.97 26.2676 55.97C27.616 55.97 28.8449 55.6379 29.9713 54.9653C31.0893 54.2927 31.9 53.3392 32.4035 52.0962L34.1786 47.9073L39.06 36.3881L40.3487 33.536L42.8235 28.0446C42.32 26.8101 41.552 25.865 40.5023 25.218C39.4611 24.5709 38.3346 24.2474 37.1399 24.2474C36.8839 24.2474 36.6278 24.2559 36.3804 24.29C35.4672 24.3921 34.5968 24.6986 33.769 25.2095C32.7193 25.8565 31.9427 26.793 31.4477 28.0361L28.3755 35.077L26.6346 39.07L20.4986 24.2815C19.9951 22.9874 19.2612 22.0338 18.2883 21.4123C17.3069 20.7908 16.2231 20.4928 15.0283 20.4843Z" fill="white"/>
<path d="M48.4218 52.0962C48.4047 52.1387 48.3791 52.1813 48.3621 52.2239C47.833 53.4073 47.0308 54.3353 45.9555 54.9994C44.8461 55.689 43.6086 56.0381 42.2688 56.0551H42.2261C40.8778 56.0381 39.6489 55.6805 38.5395 54.9994C37.4642 54.3353 36.662 53.4158 36.1329 52.2239L42.2432 37.9717L49.1984 21.7784C49.6763 20.5354 50.3761 19.5903 51.2892 18.9603C52.2024 18.3218 53.2094 17.9982 54.3103 17.9897C55.9573 17.9642 57.4337 18.5006 58.7479 19.6074C60.0622 20.7056 60.7278 22.0508 60.7534 23.6344C60.762 24.3751 60.5742 25.201 60.1902 26.0949L48.4218 52.0962Z" fill="white"/>
<path d="M34.0762 0C21.0448 0 9.72874 7.29636 3.9939 18.0238C4.16458 18.3218 5.66656 20.4332 15.0283 20.4843C16.2231 20.4928 17.3069 20.7908 18.2883 21.4123C19.2612 22.0338 19.9951 22.9874 20.4986 24.2815L26.6346 39.07L28.3755 35.077L31.4477 28.0361C31.9427 26.793 32.7193 25.8565 33.769 25.2095C34.5968 24.6986 35.4672 24.3921 36.3804 24.29C36.6279 24.2559 36.8839 24.2474 37.1399 24.2474C38.3347 24.2474 39.4611 24.5709 40.5023 25.218C41.552 25.865 42.32 26.8101 42.8235 28.0446L40.3487 33.536L39.06 36.3881L34.1786 47.9073L32.4035 52.0962C31.9 53.3392 31.0893 54.2927 29.9713 54.9653C28.8449 55.6379 27.616 55.97 26.2676 55.97C24.9192 55.97 23.6818 55.6379 22.5639 54.9653C21.4374 54.2927 20.584 53.3392 19.9781 52.0962L3.9939 18.0238C1.44224 22.783 0 28.2234 0 33.9957C0 52.7687 15.2588 67.9915 34.0762 67.9915C52.8936 67.9915 68.1524 52.7687 68.1524 33.9957C68.1524 15.2227 52.9022 0 34.0762 0ZM48.4218 52.0962C48.4048 52.1387 48.3792 52.1813 48.3621 52.2239C47.833 53.4073 47.0308 54.3353 45.9555 54.9994C44.8461 55.689 43.6087 56.0381 42.2688 56.0551C42.2518 56.0551 42.2347 56.0551 42.2262 56.0551C40.8778 56.0381 39.6489 55.6805 38.5395 54.9994C37.4642 54.3353 36.662 53.4158 36.1329 52.2239L42.2432 37.9717L49.1984 21.7784C49.6763 20.5354 50.3761 19.5903 51.2892 18.9603C52.2024 18.3218 53.2094 17.9982 54.3103 17.9897C55.9573 17.9642 57.4337 18.5006 58.7479 19.6074C60.0622 20.7056 60.7278 22.0508 60.7534 23.6344C60.762 24.3751 60.5742 25.201 60.1902 26.0949L48.4218 52.0962Z" fill="#8A49B6"/>
</g>
<defs>
<clipPath id="clip0">
<rect width="140" height="68" fill="white"/>
</clipPath>
</defs>
</svg>
