<svg width="101" height="26" viewBox="0 0 101 26" fill="none" xmlns="http://www.w3.org/2000/svg">
<g clip-path="url(#clip0)">
<path d="M36.9868 11.9507C36.9868 5.36717 28.7061 -3.18637e-06 18.4934 -3.18637e-06C8.27929 -3.18637e-06 0.00139823 5.36717 0.00139823 11.9507C0.00139823 12.1207 0 12.592 0 12.6515C0 19.6345 7.23563 25.2919 18.4906 25.2919C29.8169 25.2919 36.9868 19.6372 36.9868 12.6515V11.9507Z" fill="#28316B"/>
<path d="M36.2778 11.9453C36.2778 18.1515 28.3188 23.1842 18.4965 23.1842C8.67687 23.1842 0.716553 18.1515 0.716553 11.9453C0.716553 5.73775 8.67687 0.705075 18.4965 0.705075C28.3188 0.705075 36.2778 5.73775 36.2778 11.9453Z" fill="#50B4E9"/>
<path d="M12.5931 8.39922C12.5833 8.41719 12.4057 8.59965 12.5204 8.7434C12.8016 9.09863 13.669 9.30043 14.5461 9.10692C15.068 8.99081 15.7353 8.46557 16.383 7.95829C17.0853 7.40679 17.7834 6.8539 18.4829 6.63551C19.2244 6.40191 19.6986 6.50143 20.0134 6.59404C20.3576 6.69771 20.7633 6.92025 21.4082 7.39988C22.6254 8.30385 27.5177 12.5224 28.3613 13.2522C29.044 12.9481 32.0686 11.6599 36.1803 10.767C35.8235 8.60103 34.4889 6.61892 32.4673 4.99619C29.6497 6.16555 26.2054 6.77649 22.838 5.14962C22.8212 5.14547 20.9983 4.29126 19.1992 4.33411C16.5271 4.39493 15.3687 5.53802 14.1432 6.74747L12.5931 8.39922Z" fill="white"/>
<path d="M28.1639 13.7108C28.1065 13.6611 22.4126 8.73621 21.1213 7.77833C20.3756 7.22544 19.9601 7.08445 19.5237 7.02917C19.2956 7.00152 18.9836 7.04161 18.7626 7.10242C18.1638 7.26276 17.379 7.78109 16.6823 8.32569C15.9604 8.89517 15.2805 9.4287 14.6495 9.56969C13.8437 9.748 12.8588 9.53652 12.4083 9.23657C12.2265 9.11632 12.0992 8.97533 12.0376 8.83435C11.8711 8.45285 12.1775 8.15015 12.2265 8.09762L13.7989 6.41961C13.9808 6.23992 14.1655 6.05885 14.3543 5.88054C13.8479 5.94689 13.3792 6.07543 12.9218 6.19983C12.3524 6.35879 11.8054 6.50807 11.25 6.50807C11.0191 6.50807 9.77962 6.30903 9.54459 6.24545C8.1232 5.85842 6.8739 5.48661 5.01043 4.62548C2.77622 6.26894 1.28209 8.32431 0.851196 10.587C1.17157 10.6713 1.6878 10.822 1.90464 10.869C6.96203 11.9803 8.53591 13.1248 8.8227 13.3639C9.13188 13.0239 9.57676 12.8082 10.0748 12.8082C10.6358 12.811 11.1394 13.0874 11.4458 13.5159C11.7354 13.2893 12.1341 13.0985 12.6504 13.0985C12.884 13.0985 13.1274 13.14 13.3737 13.2229C13.9444 13.415 14.2382 13.791 14.3907 14.1324C14.5824 14.0453 14.8174 13.9817 15.0944 13.9831C15.3672 13.9831 15.6512 14.0439 15.9352 14.1656C16.867 14.5609 17.0125 15.4676 16.9285 16.1491C16.9957 16.1408 17.06 16.138 17.13 16.138C18.2338 16.1394 19.1347 17.0254 19.1333 18.1187C19.1333 18.4574 19.0452 18.7739 18.8941 19.0545C19.1949 19.2204 19.9615 19.5991 20.6331 19.5148C21.1717 19.4471 21.3759 19.266 21.4487 19.1637C21.499 19.0946 21.5522 19.0117 21.5018 18.9522L20.0777 17.3862C20.0777 17.3862 19.8412 17.1678 19.9182 17.0821C19.9993 16.9964 20.1448 17.1208 20.2483 17.2051C20.9716 17.805 21.86 18.7076 21.86 18.7076C21.874 18.7186 21.9341 18.832 22.2601 18.89C22.5427 18.9398 23.0421 18.9121 23.3891 18.6315C23.4758 18.561 23.564 18.4712 23.6367 18.3814C23.6311 18.3855 23.6255 18.391 23.6199 18.3938C23.9851 17.9321 23.5794 17.4649 23.5794 17.4649L21.9145 15.6183C21.9145 15.6183 21.6753 15.3999 21.7565 15.3114C21.8292 15.2368 21.9831 15.3515 22.0866 15.4372C22.6141 15.8712 23.3597 16.6121 24.0732 17.3032C24.2131 17.4027 24.8413 17.787 25.6723 17.2479C26.1759 16.9203 26.2766 16.5195 26.264 16.2154C26.2277 15.8146 25.9115 15.5285 25.9115 15.5285L23.6367 13.2699C23.6367 13.2699 23.3961 13.0667 23.48 12.9644C23.55 12.8773 23.7053 13.0017 23.8088 13.0874C24.5335 13.6859 26.4963 15.4635 26.4963 15.4635C26.5229 15.4828 27.2028 15.9597 28.038 15.4317C28.3388 15.2423 28.5304 14.9576 28.5458 14.6272C28.5752 14.0509 28.1639 13.7108 28.1639 13.7108Z" fill="white"/>
<path d="M17.129 16.5752C16.7764 16.5711 16.3917 16.7784 16.3399 16.748C16.3119 16.73 16.3623 16.5904 16.3959 16.5089C16.4281 16.4301 16.8925 15.0492 15.7607 14.5682C14.8934 14.2005 14.3645 14.6138 14.1827 14.8018C14.1337 14.8502 14.1127 14.846 14.1071 14.7838C14.0903 14.535 13.9784 13.8619 13.2299 13.6366C12.1597 13.3145 11.4728 14.0513 11.2979 14.3167C11.221 13.7154 10.7061 13.2482 10.0752 13.2468C9.38969 13.2468 8.83289 13.7956 8.83289 14.4728C8.83289 15.1488 9.38829 15.6975 10.0738 15.6975C10.4068 15.6989 10.7089 15.5676 10.9314 15.3561C10.9384 15.363 10.9412 15.3741 10.937 15.3976C10.8852 15.7003 10.7901 16.8019 11.9583 17.2511C12.4269 17.4308 12.8242 17.2967 13.1544 17.0673C13.2523 16.9995 13.2677 17.0286 13.2537 17.1198C13.2118 17.4032 13.2649 18.01 14.1267 18.3541C14.7814 18.6181 15.169 18.3486 15.4222 18.1164C15.5327 18.0169 15.5635 18.0348 15.5705 18.1869C15.5999 19.0079 16.2896 19.6576 17.1276 19.6589C17.9893 19.6589 18.6888 18.9706 18.6888 18.1191C18.6888 17.2663 17.9907 16.5849 17.129 16.5752Z" fill="white"/>
<path d="M17.129 19.5488C16.3469 19.5488 15.7118 18.9475 15.6838 18.1845C15.681 18.1182 15.674 17.944 15.5257 17.944C15.4642 17.944 15.4096 17.98 15.3495 18.0339C15.176 18.1928 14.9577 18.3518 14.6388 18.3518C14.4933 18.3518 14.3366 18.3186 14.1701 18.2523C13.3447 17.9219 13.3335 17.3607 13.3671 17.1354C13.3755 17.076 13.3783 17.0138 13.3377 16.9654L13.2859 16.9212H13.2356C13.1936 16.9212 13.1488 16.9364 13.0915 16.9778C12.8522 17.1437 12.6228 17.2225 12.3906 17.2225C12.2619 17.2225 12.1318 17.199 11.9989 17.1479C10.9132 16.7304 10.9986 15.7173 11.0517 15.4118C11.0587 15.3496 11.0433 15.3026 11.0042 15.2694L10.9272 15.2058L10.8559 15.2749C10.6432 15.4781 10.3662 15.5873 10.0752 15.5873C9.45407 15.5873 8.94624 15.087 8.94624 14.4719C8.94624 13.8568 9.45547 13.3578 10.0766 13.3578C10.639 13.3578 11.1189 13.7752 11.1902 14.3323L11.2294 14.6308L11.3945 14.3779C11.4141 14.3475 11.8701 13.666 12.7095 13.666C12.8676 13.666 13.0327 13.6937 13.1978 13.7434C13.8679 13.9439 13.9798 14.5424 13.998 14.7939C14.0106 14.9391 14.1141 14.946 14.1351 14.946C14.1911 14.946 14.2359 14.91 14.2652 14.8783C14.3911 14.7469 14.6654 14.5313 15.0962 14.5313C15.2935 14.5327 15.502 14.5769 15.7174 14.6695C16.7806 15.1201 16.298 16.4554 16.2924 16.4678C16.2015 16.689 16.1987 16.7871 16.284 16.8424L16.326 16.8631H16.3567C16.4043 16.8631 16.4631 16.8424 16.5624 16.8092C16.7065 16.7595 16.9247 16.6862 17.129 16.6862H17.1304C17.9292 16.6959 18.5798 17.3372 18.5798 18.1196C18.5784 18.9074 17.9278 19.5488 17.129 19.5488ZM28.384 13.1228C26.631 11.6093 22.5767 8.1261 21.4771 7.31197C20.8503 6.84616 20.4222 6.59874 20.0473 6.48955C19.878 6.43979 19.6444 6.38173 19.3436 6.38173C19.0652 6.38173 18.7658 6.43149 18.451 6.52963C17.7404 6.75079 17.0353 7.30644 16.3497 7.84274L16.3162 7.87038C15.6782 8.37075 15.0207 8.88908 14.5227 8.99828C14.3044 9.04666 14.0806 9.07154 13.8581 9.07154C13.2999 9.07154 12.7991 8.91258 12.6116 8.67484C12.5794 8.63614 12.6004 8.57394 12.6718 8.48133L12.6816 8.46889L14.2247 6.82542C15.4334 5.63257 16.575 4.50329 19.2037 4.44386C19.2471 4.44247 19.2918 4.44109 19.3352 4.44109C20.9706 4.44386 22.6061 5.16676 22.7893 5.24969C24.3241 5.99056 25.9063 6.36653 27.4984 6.36791C29.1576 6.36791 30.8686 5.96154 32.6677 5.14326C32.4662 4.97601 32.2564 4.81429 32.0423 4.65395C30.4615 5.33124 28.9561 5.67403 27.5026 5.67403C26.0182 5.67127 24.5353 5.3188 23.0971 4.62493C23.0202 4.59037 21.2155 3.74722 19.3352 3.74722C19.2862 3.74722 19.2373 3.74722 19.1883 3.7486C16.9807 3.79974 15.737 4.57517 14.9004 5.25246C14.0862 5.27319 13.3853 5.4667 12.7613 5.63948C12.2031 5.79152 11.7233 5.92422 11.2546 5.92422C11.0601 5.92422 10.7132 5.90763 10.6824 5.90625C10.1424 5.88966 7.42412 5.23172 5.26127 4.42174C5.04023 4.57655 4.82758 4.73551 4.62193 4.89861C6.88131 5.81226 9.63035 6.52134 10.4977 6.57524C10.7384 6.59321 10.9958 6.61947 11.2532 6.61947C11.8268 6.61947 12.399 6.46052 12.9544 6.30847C13.2817 6.21586 13.6427 6.11773 14.0218 6.04447C13.9211 6.14399 13.8204 6.24351 13.7182 6.34441L12.1499 8.01967C12.0282 8.14268 11.7582 8.47165 11.9359 8.87664C12.0059 9.03974 12.1472 9.19594 12.3486 9.32863C12.7221 9.57743 13.3909 9.74468 14.012 9.74468C14.2471 9.74606 14.4723 9.72256 14.6765 9.67557C15.3341 9.53182 16.0224 8.9886 16.7527 8.41498C17.3346 7.95746 18.1615 7.37831 18.7938 7.20692C18.9715 7.15992 19.1897 7.1309 19.3646 7.1309C19.4164 7.13228 19.4653 7.13228 19.5101 7.13781C19.9284 7.19171 20.3341 7.33132 21.056 7.86762C22.3431 8.82274 28.0384 13.7462 28.0944 13.7946C28.0986 13.7974 28.4609 14.1056 28.4357 14.6225C28.4217 14.9087 28.2608 15.163 27.981 15.3399C27.7376 15.492 27.4858 15.5694 27.234 15.5694C26.852 15.5694 26.5904 15.3924 26.5736 15.38C26.5513 15.3634 24.6011 13.5955 23.882 13.0026C23.7686 12.9086 23.6581 12.8243 23.5462 12.8243C23.4846 12.8243 23.4315 12.8491 23.3951 12.8934C23.2818 13.0316 23.4091 13.2223 23.5588 13.3481L25.8392 15.6094C25.842 15.6122 26.1232 15.8735 26.1525 16.2218C26.1707 16.5964 25.9889 16.9101 25.6111 17.1548C25.3425 17.3303 25.0711 17.4188 24.8039 17.4188C24.4528 17.4188 24.2093 17.2612 24.1534 17.2225L23.8274 16.906C23.2286 16.3241 22.6117 15.7228 22.1612 15.351C22.0507 15.2597 21.9332 15.1768 21.8212 15.1768C21.7653 15.1768 21.7149 15.1989 21.6771 15.2376C21.6254 15.2943 21.589 15.3952 21.7177 15.5638C21.7709 15.6343 21.8324 15.691 21.8324 15.691L23.4972 17.5363C23.5112 17.5542 23.8386 17.9399 23.5336 18.3241L23.4749 18.3988C23.4245 18.4527 23.3713 18.5011 23.321 18.5453C23.037 18.7761 22.6578 18.7996 22.5081 18.7996C22.427 18.7996 22.3487 18.7927 22.2829 18.7803C22.1178 18.7526 22.0073 18.707 21.9555 18.6448L21.936 18.6227C21.8436 18.5315 21.0056 17.6842 20.3117 17.1133C20.2208 17.0387 20.1061 16.9419 19.9885 16.9419C19.9298 16.9419 19.878 16.9654 19.8389 17.0083C19.7004 17.1575 19.906 17.3801 19.9941 17.4602L21.4141 19.0056C21.4127 19.0194 21.3931 19.0526 21.3582 19.1009C21.3078 19.1714 21.1357 19.3414 20.6223 19.405C20.5607 19.4119 20.4964 19.4147 20.4334 19.4147C19.9018 19.4147 19.3366 19.1604 19.0442 19.0069C19.1785 18.7305 19.2471 18.4264 19.2471 18.1196C19.2471 16.9654 18.2986 16.0269 17.1304 16.0269C17.1052 16.0269 17.08 16.0269 17.0534 16.0283C17.094 15.5016 17.0185 14.5037 15.9818 14.0655C15.6838 13.937 15.3858 13.8734 15.0962 13.8734C14.871 13.8734 14.6528 13.9107 14.4471 13.9895C14.2345 13.5762 13.8777 13.2763 13.4118 13.1201C13.1544 13.0316 12.8998 12.9874 12.6522 12.9874C12.2199 12.9874 11.824 13.1118 11.47 13.3606C11.1301 12.9445 10.6166 12.6971 10.0766 12.6971C9.60517 12.6971 9.15049 12.8837 8.81333 13.2141C8.37265 12.8796 6.6197 11.7807 1.93165 10.7288C1.70501 10.6791 1.18458 10.5312 0.86421 10.4386C0.811048 10.6887 0.771876 10.9417 0.743896 11.1974C0.743896 11.1974 1.60848 11.402 1.77916 11.4407C6.56794 12.4925 8.1516 13.5845 8.41881 13.7904C8.32788 14.0061 8.28171 14.2383 8.28031 14.4719C8.28031 15.4505 9.08474 16.2453 10.0752 16.2467C10.1858 16.2467 10.2949 16.237 10.404 16.2176C10.5537 16.9364 11.0293 17.4824 11.7582 17.7616C11.9695 17.8431 12.1863 17.8846 12.3976 17.8846C12.5347 17.8846 12.6704 17.868 12.8061 17.8348C12.9404 18.1707 13.244 18.5923 13.9197 18.8632C14.1575 18.9572 14.3939 19.0056 14.6248 19.0056C14.8136 19.0056 14.9983 18.9738 15.1732 18.9102C15.4978 19.6911 16.2686 20.2081 17.129 20.2081C17.6984 20.2095 18.2454 19.98 18.6455 19.5737C18.9869 19.7603 19.7087 20.0989 20.4362 20.1003C20.5314 20.1003 20.6195 20.0961 20.709 20.0851C21.4323 19.9939 21.7681 19.7146 21.9234 19.4976C21.9513 19.4589 21.9765 19.4175 21.9975 19.3774C22.1696 19.4258 22.3557 19.4645 22.5725 19.4645C22.967 19.4645 23.3461 19.3332 23.7309 19.0567C24.1058 18.7872 24.3744 18.4029 24.4122 18.0753C24.4136 18.0712 24.415 18.0657 24.415 18.0601C24.5423 18.0864 24.6738 18.0988 24.8011 18.0988C25.2096 18.0988 25.6097 17.9744 25.9917 17.727C26.7289 17.2488 26.8576 16.6254 26.8465 16.2162C26.9752 16.2411 27.1067 16.2563 27.2382 16.2563C27.6201 16.2563 27.995 16.143 28.3518 15.9177C28.8106 15.6288 29.0849 15.1865 29.1268 14.6723C29.1562 14.3226 29.0681 13.9701 28.8806 13.666C30.1173 13.1394 32.9419 12.1221 36.2701 11.3812C36.2491 11.1255 36.2128 10.874 36.1652 10.6238C32.1403 11.507 29.1366 12.7897 28.384 13.1228Z" fill="#28316B"/>
<path d="M98.3461 9.07692C98.0215 9.50126 97.5599 9.71412 96.9527 9.71412C96.3483 9.71412 95.8825 9.50126 95.5565 9.07692C95.2291 8.65258 95.0668 8.04855 95.0668 7.26483C95.0668 6.48249 95.2291 5.87984 95.5565 5.45826C95.8825 5.0353 96.3483 4.82382 96.9527 4.82382C97.5599 4.82382 98.0215 5.0353 98.3461 5.45826C98.6679 5.87984 98.8316 6.48249 98.8316 7.26483C98.8316 8.04855 98.6679 8.65258 98.3461 9.07692ZM99.9997 4.3359C99.331 3.51071 98.3181 3.09743 96.9597 3.09743C95.6013 3.09743 94.587 3.51071 93.9197 4.3359C93.2509 5.16247 92.918 6.13831 92.918 7.26483C92.918 8.41207 93.2509 9.39207 93.9197 10.2062C94.587 11.0189 95.6013 11.4267 96.9597 11.4267C98.3181 11.4267 99.331 11.0189 99.9997 10.2062C100.667 9.39207 101 8.41207 101 7.26483C101 6.13831 100.667 5.16247 99.9997 4.3359Z" fill="white"/>
<path d="M81.8888 8.11171C81.8748 8.79729 81.6761 9.27001 81.2942 9.52849C80.9137 9.78834 80.4954 9.91827 80.0435 9.91827C79.7567 9.91827 79.5147 9.8381 79.3146 9.68329C79.1145 9.52572 79.0152 9.27416 79.0152 8.92307C79.0152 8.5319 79.1789 8.24164 79.5049 8.05366C79.6993 7.94446 80.0155 7.85047 80.459 7.77583L80.9318 7.68737C81.1655 7.64314 81.3515 7.59614 81.4872 7.54638C81.6243 7.498 81.7559 7.43304 81.8888 7.34872V8.11171ZM82.9408 3.64575C82.2651 3.30572 81.49 3.13571 80.6185 3.13571C79.2768 3.13571 78.3311 3.47988 77.7799 4.16961C77.4329 4.61192 77.2399 5.17587 77.1951 5.86145H79.1971C79.246 5.55736 79.3454 5.31824 79.4923 5.1427C79.6993 4.90219 80.0505 4.78194 80.5471 4.78194C80.9892 4.78194 81.3264 4.84275 81.5558 4.96715C81.7824 5.08741 81.8972 5.30994 81.8972 5.63062C81.8972 5.89462 81.7475 6.08675 81.4509 6.21254C81.283 6.28579 81.0074 6.34523 80.6213 6.39361L79.9106 6.47792C79.1047 6.58021 78.492 6.74884 78.0779 6.98382C77.3196 7.41507 76.9419 8.11171 76.9419 9.07512C76.9419 9.81737 77.1755 10.391 77.6484 10.7974C78.1185 11.2024 78.7144 11.3724 79.4377 11.4055C83.9649 11.606 83.9145 9.04886 83.9565 8.5167V5.57257C83.9565 4.62851 83.6165 3.98578 82.9408 3.64575Z" fill="white"/>
<path d="M72.6162 4.88837C73.1339 4.88837 73.5144 5.04595 73.7592 5.36248C73.9271 5.59469 74.0334 5.85869 74.074 6.15034H76.3082C76.1851 5.03627 75.792 4.26084 75.1247 3.8213C74.4559 3.38175 73.6011 3.1606 72.5561 3.1606C71.325 3.1606 70.3611 3.53518 69.6616 4.2802C68.9621 5.0266 68.6123 6.06879 68.6123 7.40816C68.6123 8.59549 68.9285 9.56305 69.5608 10.3094C70.1946 11.0545 71.1823 11.4263 72.5239 11.4263C73.8684 11.4263 74.8812 10.9798 75.5639 10.0869C75.9934 9.53126 76.2327 8.9452 76.283 8.32181H74.0572C74.0125 8.73372 73.8823 9.06821 73.6669 9.32669C73.4528 9.5824 73.0905 9.71371 72.5785 9.71371C71.858 9.71371 71.3655 9.38889 71.1067 8.73786C70.9626 8.39092 70.8913 7.93064 70.8913 7.3584C70.8913 6.75852 70.9626 6.27751 71.1067 5.9126C71.3767 5.23116 71.8818 4.88837 72.6162 4.88837Z" fill="white"/>
<path d="M68.0135 3.16059C63.4262 3.16059 63.6962 7.17456 63.6962 7.17456V11.2521H65.7779V7.42751C65.7779 6.80136 65.8605 6.33693 66.0172 6.03423C66.304 5.49931 66.8622 5.23115 67.6946 5.23115C67.7561 5.23115 67.8401 5.2353 67.9408 5.24083C68.0429 5.24498 68.159 5.25465 68.2906 5.26847V3.17717C68.1982 3.17026 68.1381 3.1675 68.1115 3.16473C68.0863 3.16335 68.0527 3.16059 68.0135 3.16059Z" fill="white"/>
<path d="M57.5675 5.2906C57.8599 4.99342 58.2712 4.84552 58.8028 4.84552C59.2897 4.84552 59.6982 4.98374 60.0297 5.26572C60.3571 5.54769 60.5418 5.95821 60.5781 6.50004H57.0163C57.0904 5.99138 57.2765 5.58916 57.5675 5.2906ZM60.3655 9.12073C60.2774 9.24375 60.185 9.35018 60.0815 9.43173C59.7863 9.67086 59.3876 9.74412 58.9175 9.74412C58.4712 9.74412 58.1229 9.67777 57.8095 9.48149C57.2905 9.16635 56.9967 8.63281 56.9645 7.84909H62.727C62.734 7.17318 62.713 6.65623 62.6571 6.29824C62.5619 5.68591 62.3507 5.14685 62.0275 4.68242C61.668 4.15579 61.2105 3.77015 60.6607 3.5255C60.1081 3.28223 59.4897 3.16059 58.8028 3.16059C57.643 3.16059 56.7001 3.52135 55.9726 4.24287C55.248 4.96578 54.8828 6.00382 54.8828 7.35702C54.8828 8.80144 55.2857 9.84502 56.0901 10.485C56.8946 11.1263 57.8249 11.447 58.877 11.447C60.1514 11.447 61.1433 11.0669 61.8512 10.3067C62.2346 9.90722 62.4724 9.5119 62.5745 9.12073H60.3655Z" fill="white"/>
<path d="M54.0468 11.2501H52.1455V6.51871C52.1455 6.08745 52 5.05908 50.7465 5.05908C49.9099 5.05908 49.3042 5.65482 49.3042 6.51871V11.2501H47.4015V6.51871C47.4015 6.08745 47.2714 5.05908 46.0179 5.05908C45.1659 5.05908 44.5741 5.65482 44.5741 6.51871V11.2501H42.6715V6.56432C42.6715 4.60986 43.9852 3.13365 46.0179 3.13365C47.0266 3.13365 47.8478 3.55246 48.3822 4.22284C48.9446 3.55246 49.7798 3.13365 50.7465 3.13365C52.8227 3.13365 54.0468 4.54904 54.0468 6.56432V11.2501Z" fill="white"/>
<path d="M89.8019 9.09309C89.4983 9.52434 89.0507 9.73859 88.4673 9.73859C87.8811 9.73859 87.4446 9.52158 87.1564 9.09033C86.8696 8.65769 86.7269 8.0274 86.7269 7.30588C86.7269 6.6355 86.8668 6.0757 87.1494 5.62371C87.4334 5.17311 87.8755 4.94642 88.4813 4.94642C88.8786 4.94642 89.2255 5.07082 89.5263 5.31962C90.0132 5.72876 90.2594 6.46825 90.2594 7.42337C90.2594 8.10618 90.1055 8.66322 89.8019 9.09309ZM92.2977 0.690563C92.2977 0.690563 90.202 0.469407 90.202 2.1336L90.1992 4.33825C89.967 3.96781 89.6648 3.68031 89.2941 3.47436C88.9219 3.26564 88.4966 3.16059 88.0168 3.16059C86.9745 3.16059 86.1477 3.54347 85.5252 4.30646C84.9026 5.07359 84.592 6.17522 84.592 7.50906C84.592 8.6646 84.9082 9.61419 85.5392 10.3523C86.1715 11.089 87.4082 11.4138 88.5078 11.4138C92.3411 11.4138 92.2963 8.16562 92.2963 8.16562L92.2977 0.690563Z" fill="white"/>
<path d="M48.2403 18.7403C48.2403 17.9635 48.0878 17.3692 47.78 16.9503C47.4736 16.5329 47.0357 16.3228 46.4635 16.3228C45.9137 16.3228 45.4842 16.5329 45.1778 16.9503C44.8924 17.3291 44.7511 17.9262 44.7511 18.7403C44.7511 19.4992 44.9022 20.0631 45.21 20.4404C45.515 20.8606 45.9543 21.0694 46.5251 21.0694C47.0553 21.0694 47.4736 20.8606 47.78 20.4404C48.0878 20.0244 48.2403 19.4591 48.2403 18.7403ZM44.7511 24.3051C44.7511 24.5954 44.6392 24.8442 44.4168 25.046C44.2181 25.2285 43.9495 25.3211 43.6767 25.3211H42.6694V18.1722C42.6694 16.7817 43.1437 15.9123 43.9243 15.3235C44.4881 14.8991 45.3541 14.4955 47.0693 14.5743C47.9535 14.6144 48.8054 14.9945 49.3678 15.669C50.0617 16.5053 50.3513 17.4355 50.3513 18.6519C50.3513 19.9055 50.045 20.9159 49.4336 21.6955C48.8222 22.4516 48.036 22.8289 47.0763 22.8289C46.5656 22.8289 46.1166 22.7391 45.7304 22.5608C45.3205 22.3617 44.9974 22.0521 44.7511 21.6347V24.3051Z" fill="#50B4E9"/>
<path d="M60.7178 18.7417C60.7178 20.1115 61.1193 20.8717 61.921 21.0224C62.7226 21.1689 63.313 20.9864 63.6949 20.4695C63.8754 20.2538 64.0055 19.9083 64.0852 19.4425C64.165 18.9753 64.1706 18.5136 64.1006 18.0561C64.0307 17.5972 63.8656 17.1908 63.604 16.8328C63.3438 16.4749 62.9618 16.2952 62.4624 16.2952C61.7811 16.2952 61.3208 16.5453 61.0802 17.0416C60.8367 17.5378 60.7178 18.1045 60.7178 18.7417ZM64.1454 22.1682V21.6637C63.7844 22.2221 63.299 22.5677 62.6876 22.7073C62.0763 22.8455 61.4691 22.7971 60.8689 22.5566C60.2674 22.3189 59.7525 21.878 59.3202 21.2325C58.8893 20.5828 58.6753 19.7341 58.6753 18.6809C58.6753 17.4493 58.9607 16.45 59.5301 15.6856C60.1023 14.9199 61.02 14.5715 62.2819 14.537C63.527 14.5052 64.2489 14.783 64.9568 15.3124C65.7318 15.8929 66.1893 16.7831 66.1893 18.1736V22.3797C66.1921 23.7177 65.2478 26.1988 62.2819 25.9873C60.445 25.8546 59.4238 25.1096 58.8558 23.4233H61.0494C61.2103 23.6997 61.4551 23.914 61.7867 24.0632C62.1168 24.2139 62.4484 24.2512 62.7772 24.1835C63.1073 24.113 63.4081 23.9181 63.6809 23.6016C63.9509 23.2823 64.1048 22.8054 64.1454 22.1682Z" fill="#50B4E9"/>
<path d="M55.842 19.5705C55.8294 20.2574 55.6308 20.7288 55.2488 20.9873C54.8683 21.2471 54.45 21.377 53.9981 21.377C53.7113 21.377 53.4679 21.2969 53.2678 21.1421C53.0692 20.9859 52.9685 20.7329 52.9685 20.3818C52.9685 19.9907 53.1321 19.7004 53.4595 19.5124C53.654 19.4032 53.9701 19.3092 54.4122 19.2346L54.8851 19.1461C55.1201 19.1019 55.3062 19.0563 55.4405 19.0051C55.5776 18.9568 55.7091 18.8918 55.842 18.8075V19.5705ZM56.8941 15.1045C56.2183 14.7659 55.4419 14.5945 54.5703 14.5945C53.2301 14.5945 52.2843 14.9386 51.7331 15.6298C51.389 16.0707 51.1945 16.6346 51.1498 17.3202H53.1517C53.2007 17.0161 53.3 16.777 53.4469 16.6015C53.654 16.3623 54.0051 16.2407 54.5004 16.2407C54.9452 16.2407 55.281 16.3015 55.509 16.4259C55.7357 16.5462 55.8518 16.7687 55.8518 17.0894C55.8518 17.3534 55.7021 17.5469 55.4055 17.6727C55.2376 17.7446 54.962 17.804 54.5745 17.8524L53.8652 17.9367C53.0594 18.039 52.4452 18.2076 52.0325 18.4426C51.2729 18.8738 50.8951 19.5705 50.8951 20.5339C50.8951 21.2761 51.1302 21.8498 51.6016 22.2548C52.0717 22.6611 52.6691 22.8311 53.3924 22.8643C57.9181 23.0647 57.8678 20.5062 57.9097 19.9755V17.0313C57.9097 16.0873 57.5712 15.4459 56.8941 15.1045Z" fill="#50B4E9"/>
<path d="M72.4099 20.491C72.0867 20.9168 71.6236 21.1296 71.0179 21.1296C70.4135 21.1296 69.9476 20.9168 69.6217 20.491C69.2929 20.0667 69.1306 19.464 69.1306 18.6803C69.1306 17.8994 69.2929 17.2953 69.6217 16.8751C69.9476 16.4508 70.4135 16.2407 71.0179 16.2407C71.6236 16.2407 72.0867 16.4508 72.4099 16.8751C72.7331 17.2953 72.8967 17.8994 72.8967 18.6803C72.8967 19.464 72.7331 20.0667 72.4099 20.491ZM74.0649 15.7528C73.3962 14.9262 72.3833 14.5129 71.0235 14.5129C69.6664 14.5129 68.6522 14.9262 67.9848 15.7528C67.3161 16.5793 66.9832 17.5552 66.9832 18.6803C66.9832 19.8276 67.3161 20.8076 67.9848 21.6217C68.6522 22.4344 69.6664 22.8422 71.0235 22.8422C72.3833 22.8422 73.3962 22.4344 74.0649 21.6217C74.7308 20.8076 75.0638 19.8276 75.0638 18.6803C75.0638 17.5552 74.7308 16.5793 74.0649 15.7528Z" fill="#50B4E9"/>
</g>
<defs>
<clipPath id="clip0">
<rect width="101" height="26" fill="white"/>
</clipPath>
</defs>
</svg>
