<svg width="101" height="26" fill="none" xmlns="http://www.w3.org/2000/svg"><g clip-path="url(#clip0)"><path d="M36.987 11.95C36.987 5.368 28.707 0 18.493 0S.001 5.367.001 11.95L0 12.653c0 6.982 7.236 12.64 18.49 12.64 11.327 0 18.497-5.655 18.497-12.64v-.701z" fill="#28316B"/><path d="M36.278 11.945c0 6.206-7.96 11.24-17.781 11.24-9.82 0-17.78-5.034-17.78-11.24 0-6.207 7.96-11.24 17.78-11.24 9.822 0 17.78 5.033 17.78 11.24z" fill="#50B4E9"/><path d="M12.593 8.4c-.01.017-.187.2-.073.343.282.356 1.149.557 2.026.364.522-.116 1.19-.641 1.837-1.149.702-.551 1.4-1.104 2.1-1.322.741-.234 1.216-.135 1.53-.042.345.104.75.326 1.395.806 1.217.904 6.11 5.122 6.953 5.852.683-.304 3.708-1.592 7.82-2.485-.357-2.166-1.692-4.148-3.714-5.77-2.817 1.169-6.262 1.78-9.629.153-.017-.005-1.84-.859-3.639-.816-2.672.06-3.83 1.204-5.056 2.413L12.593 8.4z" fill="#fff"/><path d="M28.164 13.71c-.058-.049-5.751-4.974-7.043-5.932-.745-.553-1.16-.694-1.597-.749a2.213 2.213 0 00-.761.073c-.6.16-1.384.68-2.08 1.224-.723.57-1.402 1.103-2.034 1.244-.805.178-1.79-.033-2.24-.333a.985.985 0 01-.371-.403c-.167-.381.14-.684.188-.736L13.8 6.42c.182-.18.367-.361.555-.54-.506.067-.975.195-1.432.32-.57.159-1.117.308-1.672.308-.23 0-1.47-.199-1.705-.263-1.422-.387-2.671-.758-4.535-1.62-2.234 1.644-3.728 3.7-4.159 5.962.32.084.837.235 1.054.282 5.057 1.111 6.63 2.256 6.918 2.495a1.687 1.687 0 012.623.152c.29-.227.688-.418 1.204-.418.234 0 .477.042.724.125.57.192.864.568 1.017.91.191-.088.426-.151.703-.15.273 0 .557.06.841.183.932.395 1.077 1.302.993 1.983a1.61 1.61 0 01.202-.011c1.104.001 2.005.887 2.003 1.98 0 .34-.088.656-.239.937.3.165 1.068.544 1.74.46.538-.068.742-.249.815-.351.05-.07.103-.152.053-.212l-1.424-1.566s-.237-.218-.16-.304c.081-.086.227.039.33.123.724.6 1.612 1.503 1.612 1.503.014.01.074.124.4.182.283.05.782.022 1.13-.259.086-.07.174-.16.247-.25l-.017.013c.365-.462-.04-.93-.04-.93l-1.665-1.846s-.24-.218-.159-.307c.073-.074.227.04.33.126.528.434 1.274 1.175 1.987 1.866.14.1.768.484 1.6-.055.503-.328.604-.729.591-1.033-.036-.4-.352-.687-.352-.687l-2.275-2.258s-.24-.203-.157-.306c.07-.087.225.038.329.123.724.599 2.687 2.377 2.687 2.377.027.019.707.496 1.542-.032.3-.19.492-.474.508-.805a1.176 1.176 0 00-.382-.916z" fill="#fff"/><path d="M17.129 16.575c-.353-.004-.737.203-.79.173-.027-.018.023-.158.057-.24.032-.078.496-1.459-.635-1.94-.868-.367-1.396.046-1.578.234-.05.048-.07.044-.076-.018-.017-.249-.129-.922-.877-1.147-1.07-.322-1.757.414-1.932.68a1.23 1.23 0 00-1.223-1.07c-.685 0-1.242.549-1.242 1.226 0 .676.555 1.224 1.24 1.224.334.002.636-.13.858-.34.007.006.01.017.006.04-.052.303-.147 1.405 1.021 1.854.469.18.866.046 1.196-.184.098-.067.114-.038.1.053-.042.283.01.89.873 1.234.654.264 1.042-.005 1.295-.238.11-.1.141-.081.148.07.03.822.72 1.472 1.558 1.473a1.55 1.55 0 001.56-1.54c0-.853-.697-1.534-1.559-1.544z" fill="#fff"/><path d="M17.129 19.549a1.429 1.429 0 01-1.445-1.364c-.003-.067-.01-.241-.158-.241-.062 0-.116.036-.176.09-.174.159-.392.318-.711.318-.146 0-.302-.033-.469-.1-.825-.33-.836-.891-.803-1.117.008-.059.011-.121-.03-.17l-.051-.044h-.05a.244.244 0 00-.145.057c-.239.166-.468.244-.7.244-.13 0-.26-.023-.392-.074-1.086-.418-1-1.43-.947-1.736.007-.062-.009-.11-.048-.143l-.077-.063-.071.069c-.213.203-.49.312-.78.312-.622 0-1.13-.5-1.13-1.115s.51-1.114 1.13-1.114c.563 0 1.043.417 1.114.974l.04.299.165-.253c.02-.03.475-.712 1.315-.712.158 0 .323.028.488.077.67.2.782.8.8 1.05.013.146.116.153.137.153.056 0 .1-.036.13-.068.126-.131.4-.347.831-.347a1.6 1.6 0 01.621.138c1.064.451.581 1.786.575 1.799-.09.221-.093.32-.008.374l.042.021h.03a.73.73 0 00.206-.054c.144-.05.363-.123.567-.123h.001c.8.01 1.45.651 1.45 1.434a1.444 1.444 0 01-1.451 1.429zm11.255-6.426c-1.753-1.514-5.807-4.997-6.907-5.811-.627-.466-1.055-.713-1.43-.822a2.418 2.418 0 00-.703-.108c-.279 0-.578.05-.893.148-.71.22-1.416.776-2.101 1.313l-.034.027c-.638.5-1.295 1.02-1.793 1.128a3.079 3.079 0 01-.665.074c-.558 0-1.059-.16-1.246-.397-.033-.039-.012-.101.06-.194l.01-.012 1.543-1.644c1.208-1.192 2.35-2.322 4.979-2.381a4.15 4.15 0 01.131-.003c1.636.003 3.271.726 3.454.809 1.535.74 3.117 1.117 4.71 1.118 1.659 0 3.37-.406 5.169-1.225a15.917 15.917 0 00-.626-.489c-1.58.677-3.086 1.02-4.54 1.02-1.484-.003-2.967-.355-4.405-1.05-.077-.034-1.882-.877-3.762-.877-.049 0-.098 0-.147.002-2.207.05-3.451.826-4.288 1.503-.814.021-1.515.215-2.139.387-.558.153-1.038.285-1.506.285-.195 0-.542-.016-.573-.018-.54-.016-3.258-.674-5.42-1.484-.222.155-.434.314-.64.477 2.26.913 5.008 1.622 5.876 1.676.24.018.498.044.755.044.574 0 1.146-.158 1.701-.31a13.13 13.13 0 011.068-.265l-.304.3L12.15 8.02c-.122.123-.392.452-.214.857.07.163.211.319.413.452.373.248 1.042.416 1.663.416.235.001.46-.022.665-.07.657-.143 1.345-.686 2.076-1.26.582-.458 1.409-1.037 2.04-1.208a2.4 2.4 0 01.572-.076c.051.001.1.001.145.007.418.054.824.193 1.546.73 1.287.955 6.982 5.878 7.038 5.927.005.002.367.31.342.828-.014.286-.175.54-.455.717-.243.152-.495.23-.747.23a1.22 1.22 0 01-.66-.19c-.023-.017-1.973-1.785-2.692-2.377-.113-.094-.224-.179-.336-.179a.19.19 0 00-.15.07c-.114.138.013.328.163.454l2.28 2.261c.003.003.284.264.314.613.018.374-.164.688-.542.933-.268.175-.54.264-.807.264-.351 0-.595-.158-.65-.197l-.327-.316c-.598-.582-1.215-1.183-1.666-1.555-.11-.091-.228-.174-.34-.174a.199.199 0 00-.144.06c-.052.057-.088.158.04.327.054.07.115.127.115.127l1.665 1.845c.014.018.342.404.037.788l-.06.075a2.06 2.06 0 01-.153.146c-.284.231-.663.255-.813.255-.081 0-.16-.007-.225-.02-.165-.027-.276-.073-.328-.135l-.019-.022c-.092-.091-.93-.939-1.624-1.51-.091-.074-.206-.171-.324-.171a.198.198 0 00-.15.066c-.138.15.068.372.156.452l1.42 1.546a.323.323 0 01-.056.095c-.05.07-.222.24-.736.304-.061.007-.126.01-.189.01-.531 0-1.096-.255-1.389-.408.134-.277.203-.58.203-.887 0-1.155-.948-2.093-2.117-2.093l-.077.001c.041-.526-.035-1.524-1.071-1.962a2.232 2.232 0 00-.886-.193c-.225 0-.443.038-.649.117a1.76 1.76 0 00-1.035-.87 2.333 2.333 0 00-.76-.133c-.432 0-.828.125-1.182.374a1.806 1.806 0 00-1.393-.664 1.81 1.81 0 00-1.264.517c-.44-.334-2.193-1.433-6.881-2.485-.227-.05-.747-.198-1.068-.29-.053.25-.092.503-.12.758 0 0 .864.205 1.035.244 4.789 1.051 6.373 2.143 6.64 2.35a1.785 1.785 0 00-.139.68 1.788 1.788 0 002.124 1.746c.15.72.625 1.265 1.354 1.545a1.71 1.71 0 001.048.073c.134.336.438.757 1.114 1.028.238.094.474.143.705.143a1.6 1.6 0 00.548-.096 2.117 2.117 0 001.956 1.298 2.123 2.123 0 001.516-.634c.342.186 1.064.525 1.791.526.095 0 .183-.004.273-.015.723-.091 1.06-.37 1.214-.587.028-.04.054-.08.075-.12.172.048.358.087.575.087.394 0 .773-.132 1.158-.408.375-.27.643-.654.681-.982a.048.048 0 00.003-.015c.127.026.259.039.386.039.409 0 .809-.125 1.19-.372.738-.478.867-1.102.855-1.51.13.024.26.04.392.04.382 0 .757-.114 1.114-.34.459-.288.733-.73.775-1.245.03-.35-.059-.702-.246-1.006 1.236-.527 4.06-1.544 7.39-2.285a7.196 7.196 0 00-.106-.757c-4.025.883-7.028 2.166-7.781 2.499z" fill="#28316B"/><path d="M98.346 9.077c-.325.424-.786.637-1.393.637-.605 0-1.07-.213-1.397-.637-.327-.424-.49-1.028-.49-1.812 0-.783.163-1.385.49-1.807.326-.423.792-.634 1.397-.634.607 0 1.069.211 1.393.634.322.422.486 1.024.486 1.807 0 .784-.164 1.388-.486 1.812zM100 4.336c-.669-.825-1.682-1.239-3.04-1.239-1.359 0-2.373.414-3.04 1.239-.67.826-1.002 1.802-1.002 2.929 0 1.147.333 2.127 1.002 2.941.667.813 1.681 1.22 3.04 1.22 1.358 0 2.371-.407 3.04-1.22.667-.814 1-1.794 1-2.941 0-1.127-.333-2.103-1-2.93zM81.889 8.112c-.014.685-.213 1.158-.595 1.416-.38.26-.799.39-1.25.39-.287 0-.53-.08-.73-.235-.2-.157-.299-.409-.299-.76 0-.391.164-.681.49-.87.194-.109.51-.203.954-.277l.473-.089c.233-.044.42-.09.555-.14.137-.049.269-.114.402-.198v.763zm1.052-4.466c-.676-.34-1.451-.51-2.323-.51-1.341 0-2.287.344-2.838 1.034-.347.442-.54 1.006-.585 1.691h2.002c.049-.304.148-.543.295-.718.207-.24.558-.361 1.055-.361.442 0 .78.06 1.009.185.226.12.341.343.341.664 0 .264-.15.456-.446.582-.168.073-.444.132-.83.18l-.71.085c-.806.102-1.419.27-1.833.506-.758.431-1.136 1.128-1.136 2.091 0 .742.234 1.316.706 1.722.47.405 1.066.575 1.79.608 4.527.201 4.477-2.356 4.519-2.888V5.573c0-.944-.34-1.587-1.016-1.927zM72.616 4.888c.518 0 .898.158 1.143.474.168.233.274.497.315.788h2.234c-.123-1.114-.516-1.89-1.183-2.329-.67-.44-1.524-.66-2.569-.66-1.231 0-2.195.374-2.894 1.12-.7.746-1.05 1.788-1.05 3.127 0 1.187.317 2.155.949 2.901.634.746 1.621 1.117 2.963 1.117 1.344 0 2.357-.446 3.04-1.34.43-.555.669-1.14.719-1.764h-2.226c-.044.412-.175.746-.39 1.005-.214.255-.576.387-1.088.387-.721 0-1.213-.325-1.472-.976-.144-.347-.216-.807-.216-1.38 0-.6.072-1.08.216-1.445.27-.682.775-1.025 1.51-1.025zM68.013 3.16c-4.587 0-4.317 4.015-4.317 4.015v4.077h2.082V7.428c0-.627.082-1.091.24-1.394.286-.535.844-.803 1.677-.803.061 0 .145.004.246.01.102.004.218.014.35.027v-2.09c-.093-.008-.153-.01-.18-.013a1.213 1.213 0 00-.098-.004zM57.568 5.29c.292-.297.703-.444 1.235-.444.487 0 .895.138 1.227.42.327.282.512.692.548 1.234h-3.562c.074-.509.26-.91.552-1.21zm2.797 3.83c-.088.124-.18.23-.284.312-.295.239-.693.312-1.164.312-.446 0-.794-.066-1.108-.263-.518-.315-.812-.848-.844-1.632h5.762c.007-.676-.014-1.193-.07-1.55a3.814 3.814 0 00-.63-1.617 3.223 3.223 0 00-1.366-1.157c-.553-.243-1.171-.364-1.858-.364-1.16 0-2.103.36-2.83 1.082-.725.723-1.09 1.76-1.09 3.114 0 1.444.403 2.488 1.207 3.128.805.641 1.735.962 2.787.962 1.274 0 2.266-.38 2.974-1.14.384-.4.621-.795.724-1.186h-2.21zm-6.318 2.13h-1.901V6.52c0-.432-.146-1.46-1.4-1.46-.836 0-1.442.596-1.442 1.46v4.731h-1.903V6.52c0-.432-.13-1.46-1.383-1.46-.852 0-1.444.596-1.444 1.46v4.731h-1.902V6.564c0-1.954 1.313-3.43 3.346-3.43 1.009 0 1.83.418 2.364 1.089a3.047 3.047 0 012.364-1.09c2.077 0 3.3 1.416 3.3 3.431v4.686zm35.755-2.157c-.304.431-.751.646-1.335.646-.586 0-1.022-.217-1.31-.649-.287-.432-.43-1.063-.43-1.784 0-.67.14-1.23.422-1.682.284-.45.727-.678 1.332-.678.398 0 .745.125 1.045.374.487.409.733 1.148.733 2.103 0 .683-.153 1.24-.457 1.67zM92.298.691s-2.096-.222-2.096 1.443l-.003 2.204a2.472 2.472 0 00-.905-.864 2.566 2.566 0 00-1.277-.313c-1.042 0-1.87.382-2.492 1.145-.622.768-.933 1.87-.933 3.203 0 1.156.316 2.105.947 2.843.632.737 1.87 1.062 2.969 1.062 3.833 0 3.788-3.248 3.788-3.248L92.298.69z" fill="#fff"/><path d="M48.24 18.74c0-.776-.152-1.37-.46-1.79-.306-.417-.744-.627-1.316-.627-.55 0-.98.21-1.286.627-.286.38-.427.976-.427 1.79 0 .76.151 1.323.459 1.7.305.42.744.63 1.315.63.53 0 .949-.21 1.255-.63.308-.416.46-.98.46-1.7zm-3.489 5.565c0 .29-.112.54-.334.741a1.092 1.092 0 01-.74.275h-1.008v-7.149c0-1.39.475-2.26 1.255-2.849.564-.424 1.43-.828 3.145-.749.884.04 1.736.42 2.299 1.095.694.836.983 1.767.983 2.983 0 1.253-.306 2.264-.917 3.043-.612.757-1.398 1.134-2.358 1.134-.51 0-.96-.09-1.346-.268a2.29 2.29 0 01-.979-.926v2.67zm15.967-5.563c0 1.37.401 2.13 1.203 2.28.802.147 1.392-.036 1.774-.552.18-.216.31-.562.39-1.027.08-.468.086-.93.016-1.387a2.735 2.735 0 00-.497-1.223c-.26-.358-.642-.538-1.142-.538-.68 0-1.141.25-1.382.747-.243.496-.362 1.063-.362 1.7zm3.427 3.426v-.504c-.36.558-.846.904-1.457 1.043a3.005 3.005 0 01-1.82-.15c-.6-.238-1.116-.679-1.548-1.324-.43-.65-.645-1.499-.645-2.552 0-1.232.286-2.231.855-2.995.572-.766 1.49-1.114 2.752-1.149 1.245-.032 1.967.246 2.675.775.775.58 1.232 1.471 1.232 2.862v4.206c.003 1.338-.941 3.819-3.907 3.607-1.837-.132-2.858-.877-3.426-2.564h2.193c.161.277.406.491.738.64.33.15.661.188.99.12.33-.07.631-.265.904-.581.27-.32.424-.797.464-1.434zm-8.303-2.598c-.013.687-.211 1.159-.593 1.417-.38.26-.799.39-1.25.39-.288 0-.531-.08-.731-.235-.199-.156-.3-.41-.3-.76 0-.391.164-.682.491-.87.195-.109.511-.203.953-.277l.473-.089a3.42 3.42 0 00.556-.14 1.96 1.96 0 00.401-.198v.762zm1.052-4.466c-.676-.338-1.452-.51-2.324-.51-1.34 0-2.286.345-2.837 1.036-.344.44-.538 1.005-.583 1.69h2.002c.049-.304.148-.543.295-.718.207-.24.558-.361 1.053-.361.445 0 .781.06 1.009.185.227.12.343.343.343.663 0 .264-.15.458-.446.584-.168.072-.444.131-.831.18l-.71.084c-.806.102-1.42.27-1.833.506-.76.43-1.137 1.127-1.137 2.09 0 .743.235 1.317.707 1.722.47.406 1.067.576 1.79.61 4.526.2 4.476-2.359 4.518-2.89v-2.944c0-.944-.339-1.585-1.016-1.926zm15.516 5.387c-.323.426-.786.639-1.392.639-.605 0-1.07-.213-1.396-.639-.33-.424-.491-1.027-.491-1.81 0-.782.162-1.386.49-1.806.327-.424.793-.634 1.397-.634.606 0 1.069.21 1.392.634.323.42.487 1.024.487 1.805 0 .784-.164 1.387-.487 1.811zm1.655-4.738c-.669-.827-1.682-1.24-3.041-1.24-1.358 0-2.372.413-3.04 1.24-.668.826-1 1.802-1 2.927 0 1.148.332 2.128 1 2.942.668.812 1.682 1.22 3.04 1.22 1.36 0 2.372-.408 3.04-1.22.667-.814 1-1.794 1-2.942 0-1.125-.333-2.1-1-2.927z" fill="#50B4E9"/></g><defs><clipPath id="clip0"><path fill="#fff" d="M0 0h101v26H0z"/></clipPath></defs></svg>