<svg width="69" height="68" viewBox="0 0 69 68" fill="none" xmlns="http://www.w3.org/2000/svg">
<path d="M48.4218 52.0962C48.4047 52.1387 48.3791 52.1813 48.3621 52.2239C47.833 53.4073 47.0308 54.3353 45.9555 54.9994C44.8461 55.689 43.6086 56.0381 42.2688 56.0551C42.2517 56.0551 42.2347 56.0551 42.2261 56.0551C40.8778 56.0381 39.6489 55.6805 38.5395 54.9994C37.4642 54.3353 36.662 53.4158 36.1329 52.2239L42.2432 37.9717L49.1984 21.7784C49.6763 20.5354 50.3761 19.5903 51.2892 18.9603C52.2024 18.3218 53.2094 17.9982 54.3103 17.9897C55.9573 17.9642 57.4337 18.5006 58.7479 19.6074C60.0622 20.7056 60.7278 22.0508 60.7534 23.6344C60.762 24.3751 60.5742 25.201 60.1902 26.0949L48.4218 52.0962Z" fill="white"/>
<path d="M15.0283 20.4843C5.66656 20.4332 4.16458 18.3218 3.9939 18.0238L19.978 52.0962C20.584 53.3392 21.4374 54.2927 22.5638 54.9653C23.6818 55.6379 24.9192 55.97 26.2676 55.97C27.616 55.97 28.8449 55.6379 29.9713 54.9653C31.0893 54.2927 31.9 53.3392 32.4035 52.0962L34.1786 47.9073L39.06 36.3881L40.3487 33.536L42.8235 28.0446C42.32 26.8101 41.552 25.865 40.5023 25.218C39.4611 24.5709 38.3346 24.2474 37.1399 24.2474C36.8839 24.2474 36.6278 24.2559 36.3804 24.29C35.4672 24.3921 34.5968 24.6986 33.769 25.2095C32.7193 25.8565 31.9427 26.793 31.4477 28.0361L28.3755 35.077L26.6346 39.07L20.4986 24.2815C19.9951 22.9874 19.2612 22.0338 18.2883 21.4123C17.3069 20.7908 16.2231 20.4928 15.0283 20.4843Z" fill="white"/>
<path d="M48.4218 52.0962C48.4047 52.1387 48.3791 52.1813 48.3621 52.2239C47.833 53.4073 47.0308 54.3353 45.9555 54.9994C44.8461 55.689 43.6086 56.0381 42.2688 56.0551H42.2261C40.8778 56.0381 39.6489 55.6805 38.5395 54.9994C37.4642 54.3353 36.662 53.4158 36.1329 52.2239L42.2432 37.9717L49.1984 21.7784C49.6763 20.5354 50.3761 19.5903 51.2892 18.9603C52.2024 18.3218 53.2094 17.9982 54.3103 17.9897C55.9573 17.9642 57.4337 18.5006 58.7479 19.6074C60.0622 20.7056 60.7278 22.0508 60.7534 23.6344C60.762 24.3751 60.5742 25.201 60.1902 26.0949L48.4218 52.0962Z" fill="white"/>
<path d="M34.0762 0C21.0448 0 9.72874 7.29636 3.9939 18.0238C4.16458 18.3218 5.66656 20.4332 15.0283 20.4843C16.2231 20.4928 17.3069 20.7908 18.2883 21.4123C19.2612 22.0338 19.9951 22.9874 20.4986 24.2815L26.6346 39.07L28.3755 35.077L31.4477 28.0361C31.9427 26.793 32.7193 25.8565 33.769 25.2095C34.5968 24.6986 35.4672 24.3921 36.3804 24.29C36.6279 24.2559 36.8839 24.2474 37.1399 24.2474C38.3347 24.2474 39.4611 24.5709 40.5023 25.218C41.552 25.865 42.32 26.8101 42.8235 28.0446L40.3487 33.536L39.06 36.3881L34.1786 47.9073L32.4035 52.0962C31.9 53.3392 31.0893 54.2927 29.9713 54.9653C28.8449 55.6379 27.616 55.97 26.2676 55.97C24.9192 55.97 23.6818 55.6379 22.5639 54.9653C21.4374 54.2927 20.584 53.3392 19.9781 52.0962L3.9939 18.0238C1.44224 22.783 0 28.2234 0 33.9957C0 52.7687 15.2588 67.9915 34.0762 67.9915C52.8936 67.9915 68.1524 52.7687 68.1524 33.9957C68.1524 15.2227 52.9022 0 34.0762 0ZM48.4218 52.0962C48.4048 52.1387 48.3792 52.1813 48.3621 52.2239C47.833 53.4073 47.0308 54.3353 45.9555 54.9994C44.8461 55.689 43.6087 56.0381 42.2688 56.0551C42.2518 56.0551 42.2347 56.0551 42.2262 56.0551C40.8778 56.0381 39.6489 55.6805 38.5395 54.9994C37.4642 54.3353 36.662 53.4158 36.1329 52.2239L42.2432 37.9717L49.1984 21.7784C49.6763 20.5354 50.3761 19.5903 51.2892 18.9603C52.2024 18.3218 53.2094 17.9982 54.3103 17.9897C55.9573 17.9642 57.4337 18.5006 58.7479 19.6074C60.0622 20.7056 60.7278 22.0508 60.7534 23.6344C60.762 24.3751 60.5742 25.201 60.1902 26.0949L48.4218 52.0962Z" fill="#8A49B6"/>
</svg>
