<svg width="69" height="88" fill="none" xmlns="http://www.w3.org/2000/svg"><path d="M48.422 52.096c-.017.043-.043.085-.06.128-.529 1.183-1.331 2.111-2.407 2.775-1.109.69-2.346 1.04-3.686 1.056h-.043A7.092 7.092 0 0138.54 55c-1.075-.664-1.877-1.583-2.406-2.775l6.11-14.252 6.955-16.194c.478-1.243 1.178-2.188 2.091-2.818a5.23 5.23 0 013.021-.97c1.647-.026 3.124.51 4.438 1.617 1.314 1.099 1.98 2.444 2.005 4.027.009.741-.179 1.567-.563 2.46L48.422 52.097zM15.028 20.484c-9.361-.05-10.863-2.162-11.034-2.46l15.984 34.072c.606 1.243 1.46 2.197 2.586 2.87 1.118.672 2.355 1.004 3.704 1.004 1.348 0 2.577-.332 3.703-1.005 1.118-.672 1.929-1.626 2.433-2.869l1.775-4.189 4.881-11.519 1.289-2.852 2.475-5.491c-.504-1.235-1.272-2.18-2.322-2.827a6.27 6.27 0 00-3.362-.97 6.248 6.248 0 00-3.37.962c-1.05.646-1.827 1.583-2.322 2.826l-3.073 7.041-1.74 3.993-6.136-14.788c-.504-1.295-1.238-2.248-2.21-2.87-.982-.621-2.066-.92-3.26-.928z" fill="#fff"/><path d="M48.422 52.096c-.017.043-.043.085-.06.128-.529 1.183-1.331 2.111-2.407 2.775-1.109.69-2.346 1.04-3.686 1.056h-.043A7.092 7.092 0 0138.54 55c-1.075-.664-1.877-1.583-2.406-2.775l6.11-14.252 6.955-16.194c.478-1.243 1.178-2.188 2.091-2.818a5.23 5.23 0 013.021-.97c1.647-.026 3.124.51 4.438 1.617 1.314 1.099 1.98 2.444 2.005 4.027.009.741-.179 1.567-.563 2.46L48.422 52.097z" fill="#fff"/><path d="M21.65 75.244c.233-.168.48-.244.757-.244.414 0 .778.145 1.105.443.32.297.488.649.488 1.069 0 .198-.05.412-.153.648l-3.034 6.817c-.138.328-.35.58-.626.756a1.73 1.73 0 01-.931.267 1.62 1.62 0 01-.917-.267 1.598 1.598 0 01-.618-.756l-1.783-4.145-1.666 4.145c-.124.328-.328.58-.611.756-.284.175-.59.267-.932.267a1.66 1.66 0 01-.93-.267 1.697 1.697 0 01-.649-.756L8.131 77.16A1.53 1.53 0 018 76.534c0-.435.175-.794.517-1.091A1.712 1.712 0 019.673 75c.299 0 .575.084.815.244.24.168.43.42.553.756l1.783 4.534 1.819-4.519c.124-.328.32-.572.582-.748a1.54 1.54 0 011.688 0c.262.168.459.42.582.748l1.877 4.535 1.747-4.58c.123-.314.298-.558.53-.726zm12.315.826c.687.705 1.035 1.79 1.035 3.232v4.082c0 .493-.14.88-.429 1.16-.288.282-.68.418-1.19.418-.444 0-.807-.129-1.095-.387-.289-.258-.444-.615-.466-1.055-.177.47-.473.835-.895 1.093-.421.258-.917.387-1.501.387-.65 0-1.235-.137-1.753-.402A2.982 2.982 0 0126 81.874c0-.69.177-1.237.525-1.646.348-.41.902-.706 1.664-.888.762-.182 1.79-.273 3.084-.273h.51v-.235c0-.456-.104-.782-.303-.987-.2-.197-.547-.303-1.028-.303-.525 0-1.28.182-2.285.546a2.23 2.23 0 01-.74.152.929.929 0 01-.761-.35c-.193-.234-.289-.538-.289-.917 0-.289.06-.516.17-.706.111-.182.296-.349.555-.486.444-.235 1.006-.424 1.679-.569A9.424 9.424 0 0130.763 75c1.442.008 2.506.364 3.202 1.07zm-2.618 6.115c.296-.334.436-.759.436-1.275v-.235h-.303c-.814 0-1.39.076-1.73.228-.34.152-.518.402-.518.751 0 .303.096.546.273.744a.935.935 0 00.718.296c.458-.016.828-.175 1.124-.509zm15.729-6.576c.608.41 1.08.982 1.416 1.73.336.74.508 1.591.508 2.544 0 .954-.172 1.797-.508 2.523-.336.725-.808 1.283-1.409 1.671-.6.389-1.295.587-2.082.587a3.511 3.511 0 01-1.595-.36c-.486-.241-.865-.557-1.13-.96v3.204c0 .44-.15.792-.443 1.056-.294.264-.68.396-1.16.396-.507 0-.908-.14-1.215-.425-.308-.286-.458-.645-.458-1.085v-9.913c0-.47.143-.844.43-1.122.285-.286.679-.425 1.165-.425.465 0 .844.124 1.13.373.286.25.451.587.487 1.005.257-.44.636-.785 1.13-1.034.5-.25 1.044-.374 1.652-.374.787-.007 1.474.198 2.082.609zm-1.767 5.946c.3-.389.45-.953.45-1.679 0-.77-.157-1.356-.457-1.767-.308-.41-.744-.616-1.31-.616-.564 0-1 .198-1.308.601-.308.404-.458.983-.458 1.738 0 .74.15 1.313.458 1.708.307.396.75.594 1.323.594.572.008 1.002-.183 1.302-.579zm13.321-6.32c.24-.154.5-.228.783-.228.413 0 .783.14 1.102.418.318.28.485.61.485 1.006 0 .212-.05.418-.152.623l-4.942 10.022c-.152.315-.348.55-.587.697-.24.154-.507.227-.797.227-.413 0-.776-.132-1.094-.403-.32-.272-.479-.602-.479-.99 0-.214.058-.434.167-.661l1.21-2.472-3.174-6.42a1.5 1.5 0 01-.152-.601c0-.404.174-.749.522-1.028A1.796 1.796 0 0152.696 75c.297 0 .572.08.833.235.254.161.45.396.587.711l1.978 4.344 1.957-4.344c.16-.33.348-.564.58-.711z" fill="#FF7F66"/><path d="M34.076 0C21.045 0 9.73 7.296 3.994 18.024c.17.298 1.673 2.41 11.034 2.46 1.195.009 2.279.307 3.26.928.973.622 1.707 1.575 2.21 2.87l6.137 14.788 1.74-3.993 3.073-7.04c.495-1.244 1.271-2.18 2.321-2.828a6.248 6.248 0 013.37-.962 6.27 6.27 0 013.363.971c1.05.647 1.818 1.592 2.322 2.827l-2.475 5.491-1.289 2.852-4.881 11.52-1.776 4.188c-.503 1.243-1.314 2.197-2.432 2.87-1.126.672-2.355 1.004-3.703 1.004-1.349 0-2.586-.332-3.704-1.005-1.127-.672-1.98-1.626-2.586-2.869L3.994 18.024A33.704 33.704 0 000 33.996C0 52.769 15.259 67.99 34.076 67.99c18.818 0 34.076-15.222 34.076-33.995C68.152 15.223 52.902 0 34.076 0zm14.346 52.096c-.017.043-.043.085-.06.128-.529 1.183-1.331 2.111-2.407 2.775-1.109.69-2.346 1.04-3.686 1.056h-.043A7.092 7.092 0 0138.54 55c-1.075-.664-1.877-1.583-2.406-2.775l6.11-14.252 6.955-16.194c.478-1.243 1.178-2.188 2.091-2.818a5.23 5.23 0 013.021-.97c1.647-.026 3.124.51 4.438 1.617 1.314 1.099 1.98 2.444 2.005 4.027.009.741-.179 1.567-.563 2.46L48.422 52.097z" fill="#8A49B6"/></svg>